<?xml version="1.0" encoding="utf-8"?>
<!-- Generator: Adobe Illustrator 26.2.1, SVG Export Plug-In . SVG Version: 6.00 Build 0)  -->
<svg version="1.1" id="Layer_1" xmlns="http://www.w3.org/2000/svg" xmlns:xlink="http://www.w3.org/1999/xlink" x="0px" y="0px"
	 width="1920px" height="1400px" viewBox="0 0 1920 1400" style="enable-background:new 0 0 1920 1400;" xml:space="preserve">
<style type="text/css">
	.st0{clip-path:url(#SVGID_00000159450442514510031910000012423720390616570265_);fill:#273036;}
	.st1{clip-path:url(#SVGID_00000159450442514510031910000012423720390616570265_);}
	.st2{fill:#273036;}
</style>
<g>
	<defs>
		<rect id="SVGID_1_" x="-110" y="-100.6" width="2063.1" height="1598.2"/>
	</defs>
	<clipPath id="SVGID_00000042014877275397626710000000500887116138245311_">
		<use xlink:href="#SVGID_1_"  style="overflow:visible;"/>
	</clipPath>
	
		<rect x="-110" y="-100.6" style="clip-path:url(#SVGID_00000042014877275397626710000000500887116138245311_);fill:#273036;" width="2063.1" height="1598.2"/>
	<g style="clip-path:url(#SVGID_00000042014877275397626710000000500887116138245311_);">
		
			<image style="overflow:visible;opacity:0.3;" width="2042" height="3175" xlink:href="962595DC6E27F49D.png"  transform="matrix(0.24 0 0 0.24 -260.64 -250.08)">
		</image>
		<g>
			<path class="st2" d="M-67,223.7c6.6-25.2,16.6-48.3,28.5-71.5c17.2-33.1,35.8-62.2,55-94.7C23,45.6,29.6,34.3,36.3,22.4
				C41.6,11.8,47.5,2.5,51.5-8.1c2-6,4.6-11.3,7.3-17.2c9.4-24.4,16-49.4,20.4-74.7h-189.7v461.8c4.2-9.3,7.7-18.7,11-28.9
				C-88.9,295.8-77.6,260.7-67,223.7z"/>
		</g>
	</g>
	<g style="clip-path:url(#SVGID_00000042014877275397626710000000500887116138245311_);">
		
			<image style="overflow:visible;opacity:0.3;" width="2363" height="3873" xlink:href="962595DC6E27F49F.png"  transform="matrix(0.24 0 0 0.24 -260.64 -250.08)">
		</image>
		<g>
			<path class="st2" d="M-75.9,505.5c19.7-16.7,36.3-36.9,49.2-59.2c14.3-24.7,24.7-51.7,33.8-78.7c9.5-28.3,17.6-57,26.7-85.4
				c9.2-28.6,19.6-56.7,31.5-84.3c11.8-27.2,24.9-53.7,37.4-80.6c12.3-26.6,23.8-53.7,32.6-81.7c8.8-28.1,15.3-57,18.4-86.3
				c1.7-16.4,2.5-32.9,2.7-49.3H79.2c-4.5,25.3-11,50.3-20.4,74.7c-2.6,6-5.3,11.3-7.3,17.2c-4,10.6-9.9,19.9-15.2,30.5
				C29.6,34.3,23,45.6,16.4,57.5c-19.2,32.4-37.7,61.6-55,94.7c-11.9,23.2-21.8,46.3-28.5,71.5c-10.6,37.1-21.8,72.2-32.4,109.2
				c-3.3,10.2-6.8,19.6-11,28.9v167.5C-98.3,522.5-86.7,514.6-75.9,505.5z"/>
		</g>
	</g>
	<g style="clip-path:url(#SVGID_00000042014877275397626710000000500887116138245311_);">
		
			<image style="overflow:visible;opacity:0.3;" width="2603" height="4263" xlink:href="962595DC6E27F49A.png"  transform="matrix(0.24 0 0 0.24 -260.64 -250.08)">
		</image>
		<g>
			<path class="st2" d="M-5.6,560c19.4-18.8,36.1-40.3,50.1-63.3c14.8-24.4,26.3-50.6,36.4-77.2c10.7-28.1,20.1-56.6,29.6-85.1
				c9.6-28.8,19.2-57.7,29.5-86.3c10.2-28.3,21.2-56.3,31.9-84.4c10.5-27.7,20.1-55.8,27-84.6c7-29.2,11.7-58.9,13.7-88.8
				c2.1-30.1,1.3-60.2-0.2-90.3h-56c-0.2,16.5-1,33-2.7,49.3c-3.1,29.3-9.6,58.2-18.4,86.3c-8.8,28-20.2,55.1-32.6,81.7
				c-12.5,26.9-25.6,53.4-37.4,80.6c-11.9,27.6-22.3,55.7-31.5,84.3c-9.1,28.4-17.2,57.1-26.7,85.4c-9.1,27-19.5,54-33.8,78.7
				c-12.9,22.3-29.6,42.5-49.2,59.2c-10.7,9.1-22.3,17-34.5,23.8V623c13.7-4,27-9,39.8-15.6C-46.8,595-24.9,578.7-5.6,560z"/>
		</g>
	</g>
	<g style="clip-path:url(#SVGID_00000042014877275397626710000000500887116138245311_);">
		
			<image style="overflow:visible;opacity:0.3;" width="2818" height="4626" xlink:href="962595DC6E27F49B.png"  transform="matrix(0.24 0 0 0.24 -260.64 -250.08)">
		</image>
		<g>
			<path class="st2" d="M-108.3,709.6c23.5-4.7,46.1-13.1,67.1-24.4c20.8-11.2,40-25.2,57.8-40.7c18.3-15.9,35.1-33.5,51-51.8
				c2-2.3,4-4.6,6-7c1-1.1,1.9-2.3,2.9-3.4c1-1.2,1.3-2.3,2-3.6c1.7-2.9,4.5-5.5,6.6-8.1c2.2-2.8,4.4-5.5,6.6-8.3
				c8.5-11,16.5-22.3,24.1-33.9c15.5-23.6,29.6-48.2,41.6-73.8c12-25.8,22.3-52.3,31.8-79.1c4.8-13.5,9.4-27.1,14.1-40.7
				c2.2-6.5,3.5-13.2,5.6-19.8c2.3-7,4.5-13.9,6.7-20.9c8.7-27.7,16.7-55.6,23.7-83.7c7.1-28.4,13.1-57.1,17.8-86
				c4.8-29.4,7.3-59.5,8.2-89.3c0.8-30.1-0.3-60.2-2.6-90.2c-1.1-15-2.5-30-4-44.9h-46.2c1.6,30.1,2.3,60.2,0.2,90.3
				c-2.1,29.9-6.8,59.6-13.7,88.8c-6.9,28.8-16.5,56.9-27,84.6c-10.6,28.1-21.7,56.1-31.9,84.4c-10.3,28.6-19.9,57.5-29.5,86.3
				c-9.5,28.5-18.9,57-29.6,85.1c-10.1,26.6-21.6,52.8-36.4,77.2c-14,23.1-30.7,44.5-50.1,63.3c-19.3,18.7-41.2,35-65.1,47.4
				C-83.5,614-96.8,619-110.5,623v87C-109.7,709.8-109,709.7-108.3,709.6z"/>
		</g>
	</g>
	<g style="clip-path:url(#SVGID_00000042014877275397626710000000500887116138245311_);">
		
			<image style="overflow:visible;opacity:0.3;" width="3042" height="5019" xlink:href="962595DC6E27F4A5.png"  transform="matrix(0.24 0 0 0.24 -260.64 -250.08)">
		</image>
		<g>
			<path class="st2" d="M1.8,754.2c10.4-8.9,20.5-18.1,30.8-27.1c11-9.6,21.8-19.3,32.4-29.4c21.4-20.5,41.9-42,62.1-63.7
				c20.7-22.2,41-44.6,61.1-67.3c19.5-21.9,38.9-43.9,56.7-67.2c16.8-22.1,32.2-45.5,44.2-70.6c12.4-25.9,20.2-53.3,24.2-81.6
				c4.2-29.4,5.5-59.3,6-88.9c0.5-30.8-0.1-61.6-0.8-92.4c-0.6-30.8-1.4-61.7-2.2-92.5c-0.9-30.7-2.9-61.2-6.2-91.7
				c-2.9-27.3-6.7-54.4-10.5-81.6h-41c1.5,15,2.9,29.9,4,44.9c2.3,30,3.4,60.1,2.6,90.2c-0.8,29.8-3.4,59.9-8.2,89.3
				c-4.7,28.9-10.8,57.6-17.8,86c-7,28.1-15,56-23.7,83.7c-2.2,7-4.4,14-6.7,20.9c-2.1,6.6-3.4,13.2-5.6,19.8
				c-4.6,13.6-9.2,27.1-14.1,40.7c-9.5,26.8-19.8,53.3-31.8,79.1c-12,25.6-26,50.2-41.6,73.8c-7.6,11.6-15.6,22.9-24.1,33.9
				c-2.2,2.8-4.3,5.6-6.6,8.3c-2.1,2.6-4.9,5.2-6.6,8.1c-0.8,1.3-1,2.4-2,3.6c-1,1.1-1.9,2.3-2.9,3.4c-2,2.3-4,4.7-6,7
				c-15.9,18.3-32.7,35.8-51,51.8c-17.8,15.5-37,29.5-57.8,40.7c-21.1,11.3-43.7,19.7-67.1,24.4c-0.7,0.1-1.5,0.3-2.2,0.4v94.4
				c14.3-1.2,28.5-3.8,42.3-8.4C-41.8,787.3-19.2,772,1.8,754.2z"/>
		</g>
	</g>
	<g style="clip-path:url(#SVGID_00000042014877275397626710000000500887116138245311_);">
		
			<image style="overflow:visible;opacity:0.3;" width="3634" height="5475" xlink:href="962595DC6E27F4A7.png"  transform="matrix(0.24 0 0 0.24 -260.64 -250.08)">
		</image>
		<g>
			<path class="st2" d="M-40.3,893.9c23.1-13.3,42.7-31.9,60.8-51.3c20.3-21.8,39.3-44.7,58.9-67c19.4-22,39.5-43.4,60.8-63.6
				c20.8-19.7,42.9-38.2,66.4-54.7c23.3-16.3,48.1-31.1,74.6-41.8c26.5-10.7,54.7-16.4,82.5-22.6c23.8-5.3,48.5-12,66.9-28.9
				c17.8-16.3,25.9-40.2,29.1-63.6c3.8-28,1.1-56.5-5.2-83.9c-6.6-28.9-17.1-56.7-27.9-84.3c-10.9-27.7-22.2-55.2-31.8-83.4
				c-9.7-28.2-17.8-56.9-24.4-86c-6.7-29.7-12-59.6-17.3-89.5c-5.4-30.3-10.5-60.7-15.5-91.1c-4.5-27.4-9-54.9-13.6-82.3h-24.3
				c3.9,27.1,7.6,54.3,10.5,81.6c3.3,30.5,5.3,61,6.2,91.7c0.9,30.8,1.6,61.7,2.2,92.5c0.6,30.8,1.3,61.6,0.8,92.4
				c-0.5,29.7-1.8,59.5-6,88.9c-4.1,28.4-11.9,55.7-24.2,81.6c-12,25.1-27.3,48.5-44.2,70.6c-17.8,23.3-37.2,45.3-56.7,67.2
				c-20.1,22.7-40.4,45.1-61.1,67.3c-20.2,21.7-40.7,43.2-62.1,63.7c-10.5,10.1-21.4,19.8-32.4,29.4c-10.3,9-20.4,18.3-30.8,27.1
				c-21,17.8-43.6,33.2-69.9,41.8c-13.9,4.5-28,7.2-42.3,8.4v109.3C-85.8,913.3-61.8,906.3-40.3,893.9z"/>
		</g>
	</g>
	<g style="clip-path:url(#SVGID_00000042014877275397626710000000500887116138245311_);">
		
			<image style="overflow:visible;opacity:0.3;" width="9749" height="7917" xlink:href="962595DC6E27F4AA.png"  transform="matrix(0.24 0 0 0.24 -260.64 -250.08)">
		</image>
		<g>
			<path class="st2" d="M-28.5,1018.5c28-3.4,53.2-14.8,73.9-34c20.8-19.4,37.1-43.4,52.8-67c15.8-23.7,31.1-47.9,48.6-70.5
				c16.8-21.7,35.9-41.5,57.7-58.3c20.7-15.9,44.9-30.1,71.1-33.9c26.1-3.8,53.3,3.8,72.4,22.2c20.4,19.6,26,48.3,27.5,75.5
				c1.7,30.4-2.9,60.6-6.6,90.7c-3.8,30.5-7.6,61-10.7,91.6c-1.5,15.3-2.9,30.6-4.1,46c-1.1,15.1-1.6,30.3-3.1,45.4
				c-2.7,27-8.9,56.5-26.8,77.8c-18.5,22.1-45.2,31.5-71.2,41.9c-14.1,5.6-28,11.7-42,17.7c-12.8,5.6-25.9,10.8-37.7,18.4
				c-23.1,14.9-40.4,38-54.8,61.1c-15,24-27,49.7-37.1,76.1c-10.2,26.4-18.5,53.5-26.5,80.7h202.2c2.4-8.5,6.6-16.5,12.1-23.4
				c8.2-10.2,19.1-17.8,30.3-24.3c12.7-7.4,26-13.9,39-20.7c25.2-13,50.1-26.6,73.2-43.1c21.8-15.5,41.8-33.7,58.4-54.7
				c16.7-21.2,29.6-45.4,36.6-71.5c3.6-13.5,5.6-27.4,6-41.4c0.3-14.5-1.5-28.7-4.2-42.9c-5.6-29.8-13.4-59.1-19.1-88.9
				c-5.8-29.8-9-60.1-7.3-90.4c1.6-28.5,7.3-57.1,17.1-84c8.7-23.8,20.6-47.5,38.1-66c17.2-18.3,39.6-29.1,64.9-29.2
				c29.4-0.1,58.5,10,85.4,21.1c27.3,11.2,53.7,24.7,80.7,36.7c26,11.5,53.2,21.7,81.7,24.6c27,2.8,54-1.9,78.5-13.5
				c24.4-11.5,44.9-29,62.4-49.3c18.4-21.4,34.1-45.1,50-68.3c17-24.8,33.7-49.8,51.3-74.1c16.5-22.8,34.1-44.9,54.5-64.4
				c10.5-10.1,21.9-19.1,33.4-28.1c11.6-9,23.1-18.2,34.9-27c23.2-17.3,48.6-31.4,74.8-43.6c26.4-12.3,53.6-23.2,81.4-32.1
				c28.4-9.2,57.5-16.2,86.9-21.3c30-5.2,60.3-8.7,90.5-12.1c30.5-3.4,61.1-6.9,91.6-10.5c14.8-1.8,29.7-3.6,44.2-7.4
				c13.9-3.6,27.3-8.8,40.2-15.1c24.7-12.1,47.7-27.8,68.7-45.5c21.2-17.9,40.5-38.1,57.8-59.8c17.2-21.6,32.8-44.7,45.5-69.3
				c12.9-25.1,22.3-51.7,27.4-79.4c5.4-29,6.3-58.8,3.5-88.2c-2.8-29-9.2-57.7-18.4-85.3c-9.1-27.1-21.1-53.1-35.1-78
				c-5.7-10-11.6-19.9-17.8-29.6h-88.1c11.7,12.2,22.9,25.1,33.5,39.3c28.3,39.2,48,81.4,53.7,130.6c7.5,66.4-15,130.4-58,179.1
				c-0.8,0.8-0.8,2.4-1.6,3.2c-3.2,4-6.3,6.4-9.5,10.4c-3.2,3.2-7.1,6.3-10.3,9.5c-11.1,12.8-23.8,22.3-35.2,34.5l-1,0.7
				c-8.2,5.5-16.4,11.1-24.6,16.7c-28.6,19.6-58,36.8-89.6,50.3c-32,13.6-65.2,23.2-98.4,32.8c-34.4,9.9-68.9,19.3-103.4,28.5
				c-32.8,8.7-65.3,18.3-97.4,29.7c-32,11.4-63.5,24.6-94,39.9c-30.7,15.3-60.6,32.5-89.3,51.6c-29.2,19.5-56.4,41.9-83.8,64.1
				c-13.9,11.3-27.9,22.6-41.5,34.2c-13.2,11.2-25.9,22.9-39.2,33.8c-25.6,21.1-53.7,41.9-85,51.8c-31,9.9-63.2,7.9-94.2-0.2
				c-30.9-8.1-60.3-21.8-87.1-39.9c-24.6-16.6-47.5-36.7-64.8-61.8c-19-27.6-30-60.1-39.3-92.6c-10.1-35.6-19-71.5-28.4-107.3
				c-8.8-33.5-21.1-65.2-36.3-96c-15.1-30.6-31.5-60.7-48.7-90.1c-17.9-30.7-36.2-61.8-50.2-94.8c-13.8-32.8-24.8-67.1-34-101.7
				c-9.6-35.9-16.9-72.5-25-108.9c-3.5-15.9-7.1-31.7-10.7-47.6h-50.8c4.6,27.4,9.1,54.9,13.6,82.3c5,30.4,10.2,60.7,15.5,91.1
				c5.3,29.9,10.6,59.9,17.3,89.5c6.6,29.1,14.7,57.8,24.4,86c9.7,28.2,21,55.7,31.8,83.4c10.8,27.5,21.2,55.4,27.9,84.3
				c6.3,27.4,9,55.9,5.2,83.9c-3.2,23.4-11.3,47.3-29.1,63.6c-18.4,16.8-43.2,23.5-66.9,28.9c-27.8,6.3-55.9,12-82.5,22.6
				c-26.5,10.6-51.3,25.4-74.6,41.8c-23.5,16.5-45.5,35-66.4,54.7c-21.3,20.2-41.4,41.6-60.8,63.6c-19.6,22.3-38.6,45.3-58.9,67
				C2.4,862-17.2,880.6-40.3,893.9c-21.5,12.4-45.5,19.4-70.2,19.8v98C-83.8,1018.3-55.9,1021.8-28.5,1018.5z"/>
		</g>
	</g>
	<g style="clip-path:url(#SVGID_00000042014877275397626710000000500887116138245311_);">
		
			<image style="overflow:visible;opacity:0.3;" width="8328" height="7917" xlink:href="962595DC6E27F4AB.png"  transform="matrix(0.24 0 0 0.24 107.04 -250.08)">
		</image>
		<g>
			<path class="st2" d="M1873.9-70.4c14,24.9,26,50.9,35.1,78c9.3,27.6,15.6,56.3,18.4,85.3c2.8,29.4,1.9,59.2-3.5,88.2
				c-5.1,27.7-14.5,54.4-27.4,79.4c-12.7,24.6-28.3,47.7-45.5,69.3c-17.3,21.8-36.5,41.9-57.8,59.8c-21,17.8-44,33.4-68.7,45.5
				c-12.9,6.3-26.3,11.5-40.2,15.1c-14.5,3.8-29.3,5.6-44.2,7.4c-30.5,3.6-61,7.1-91.6,10.5c-30.3,3.4-60.5,6.9-90.5,12.1
				c-29.4,5.1-58.5,12.2-86.9,21.3c-27.8,8.9-54.9,19.8-81.4,32.1c-26.2,12.2-51.6,26.3-74.8,43.6c-11.8,8.8-23.3,18-34.9,27
				c-11.5,8.9-22.9,18-33.4,28.1c-20.4,19.5-38,41.6-54.5,64.4c-17.6,24.3-34.4,49.3-51.3,74.1c-15.9,23.3-31.5,47-50,68.3
				c-17.5,20.3-38,37.8-62.4,49.3C903.9,900.1,877,904.8,850,902c-28.5-2.9-55.6-13.1-81.7-24.6c-27-12-53.4-25.4-80.7-36.7
				c-26.9-11.1-55.9-21.1-85.4-21.1c-25.3,0.1-47.7,11-64.9,29.2c-17.5,18.6-29.5,42.2-38.1,66c-9.8,26.9-15.5,55.4-17.1,84
				c-1.7,30.3,1.5,60.6,7.3,90.4c5.8,29.8,13.5,59.1,19.1,88.9c2.7,14.2,4.5,28.4,4.2,42.9c-0.3,14-2.4,27.9-6,41.4
				c-7,26.1-19.9,50.3-36.6,71.5c-16.6,21.1-36.6,39.2-58.4,54.7c-23.1,16.5-48,30.1-73.2,43.1c-13.1,6.8-26.3,13.3-39,20.7
				c-11.2,6.5-22.1,14.1-30.3,24.3c-5.5,6.8-9.7,14.9-12.1,23.4h246c8.6-21.1,19.8-41.1,31.8-60.4c15.1-24.4,31.4-48,46.1-72.7
				c14.8-24.8,27.6-50.7,37.4-77.9c9.8-27.4,16.8-55.7,21.2-84.5c4.5-29.6,6.5-59.6,10.5-89.3c2.9-21.5,7.6-45.6,24.3-61
				c9.4-8.7,21.7-13.2,34.1-15.6c14.1-2.7,28.5-3.2,42.8-3.3c15.1,0,30.3,0.5,45.4,0.1c14.9-0.4,29.8-1.6,44.6-3.6
				c28.6-3.9,56.6-11.2,83.3-22.2c25.6-10.5,49.7-24.4,71.6-41.4c21.6-16.8,40.8-36.5,57.4-58.2c17.2-22.6,31.7-47.2,45.2-72.1
				c14.1-25.9,26.6-52.5,40.8-78.2c13.8-25,29.5-49,47.1-71.4c8.7-11.1,17.9-21.9,27.5-32.2c10.1-10.8,21.5-19.6,33.4-28.4
				c11.7-8.7,23.2-17.8,35.3-25.8c11.9-7.9,24.5-14.7,37.4-20.8c25.7-12.1,53-21.3,80.8-27.1c28.6-6,58.3-8.1,87.3-3.7
				c21.3,3.2,43.9,10.4,57.9,27.8c16.1,19.9,16.5,47.3,13,71.4c-4.1,28-12.5,55.4-20.4,82.4c-8.5,28.8-16.7,57.6-23,87
				c-6.2,29.3-10.6,58.9-12.1,88.8c-1.5,29.5,0,59.3,7,88.1c6.2,25.7,16.9,50.5,32,72.2c14.5,20.8,33.2,38.4,55.6,50.4
				c24.1,13,51.4,18.7,78.6,19.7c29.3,1.1,58.6-2.9,87.2-9.1c29.4-6.3,58.2-15.1,86.9-24c29.1-9,58.2-18.4,87.5-26.7
				c5.7-1.6,11.4-3.2,17.2-4.6V-100H1856C1862.3-90.3,1868.2-80.5,1873.9-70.4z"/>
		</g>
	</g>
	<g style="clip-path:url(#SVGID_00000042014877275397626710000000500887116138245311_);">
		
			<image style="overflow:visible;opacity:0.3;" width="7303" height="5218" xlink:href="962595DC6E27F4AD.png"  transform="matrix(0.24 0 0 0.24 353.04 397.68)">
		</image>
		<g>
			<path class="st2" d="M643.3,1444.7c13.8-27.2,28.1-54,42.3-80.9c14.2-26.8,27.8-53.8,41.8-80.7c13-24.8,26.3-49.5,43.3-71.9
				c16.5-21.7,36.2-41.2,59.1-56c12.3-8,25.5-14.5,38.5-21.2c13.4-6.9,26.6-14.2,39.7-21.6c26.4-14.7,52.7-29.7,78.6-45.2
				c24.1-14.4,47.6-29.8,69-47.9c21.2-17.9,40.4-38.2,57.6-60c17.8-22.6,33.1-46.9,47-72.1c14.1-25.6,26.9-51.9,40.4-77.9
				c13.2-25.4,27.3-50.5,44.4-73.6c15.9-21.5,34.3-41.4,55.7-57.5c20.9-15.8,45-27.7,71-31.9c25.1-4.1,53.5-1.4,69.7,20.6
				c16.1,21.8,15.8,52.4,14.3,78.2c-1.7,30.5-7.1,60.6-11.2,90.8c-4.1,30.1-7.2,60.2-7.3,90.6c-0.1,30,2.4,60,8.6,89.4
				c3,14.4,6.9,28.6,12.1,42.4c5.1,13.8,11.5,27.3,17.6,40.7c5.6,12.3,13.3,23.4,21.6,34c8.1,10.2,17,19.8,26.7,28.4
				c20,17.8,43.3,31.1,68.9,38.9c27.1,8.3,55.7,10.5,83.9,9.5c30.3-1,60.3-5.5,90-11.5c29.8-6,59.3-13.5,88.8-20.8
				c29.4-7.3,59-14,88.9-19.2c3.8-0.6,7.5-1.3,11.3-1.9v-82.7c-5.8,1.5-11.5,3-17.2,4.6c-29.4,8.3-58.4,17.7-87.5,26.7
				c-28.7,8.9-57.5,17.6-86.9,24c-28.6,6.2-57.9,10.1-87.2,9.1c-27.2-1-54.5-6.8-78.6-19.7c-22.4-12-41.1-29.6-55.6-50.4
				c-15.1-21.8-25.8-46.5-32-72.2c-6.9-28.8-8.4-58.6-7-88.1c1.5-29.9,5.9-59.6,12.1-88.8c6.2-29.4,14.5-58.2,23-87
				c8-27.1,16.3-54.5,20.4-82.4c3.5-24.2,3.1-51.5-13-71.4c-14-17.4-36.6-24.7-57.9-27.8c-29-4.3-58.7-2.3-87.3,3.7
				c-27.8,5.8-55.1,15-80.8,27.1c-12.9,6.1-25.5,12.9-37.4,20.8c-12.2,8-23.6,17.1-35.3,25.8c-11.9,8.8-23.2,17.6-33.4,28.4
				c-9.6,10.3-18.8,21.1-27.5,32.2c-17.6,22.5-33.3,46.4-47.1,71.4c-14.2,25.8-26.8,52.4-40.8,78.2c-13.6,24.9-28,49.5-45.2,72.1
				c-16.6,21.7-35.8,41.4-57.4,58.2c-21.8,17-46,30.9-71.6,41.4c-26.7,11-54.7,18.3-83.3,22.2c-14.8,2-29.7,3.1-44.6,3.6
				c-15.1,0.4-30.3-0.1-45.4-0.1c-14.3,0-28.7,0.6-42.8,3.3c-12.4,2.4-24.7,6.9-34.1,15.6c-16.7,15.4-21.4,39.4-24.3,61
				c-4,29.7-6,59.6-10.5,89.3c-4.4,28.7-11.3,57.1-21.2,84.5c-9.8,27.2-22.6,53.1-37.4,77.9c-14.7,24.7-31,48.3-46.1,72.7
				c-12,19.4-23.1,39.3-31.8,60.4h114.8C625.5,1481.2,634.2,1462.8,643.3,1444.7z"/>
		</g>
	</g>
	<g style="clip-path:url(#SVGID_00000042014877275397626710000000500887116138245311_);">
		
			<image style="overflow:visible;opacity:0.3;" width="6825" height="4814" xlink:href="B36EA8DBEBC65AB6.png"  transform="matrix(0.24 0 0 0.24 467.76 494.64)">
		</image>
		<g>
			<path class="st2" d="M1855.5,1177.6c-29.5,7.3-59,14.9-88.8,20.8c-29.6,5.9-59.7,10.5-90,11.5c-28.2,0.9-56.8-1.3-83.9-9.5
				c-25.6-7.8-48.9-21.1-68.9-38.9c-9.7-8.7-18.7-18.2-26.7-28.4c-8.3-10.5-16-21.7-21.6-34c-6.1-13.4-12.4-26.9-17.6-40.7
				c-5.1-13.8-9.1-28-12.1-42.4c-6.1-29.4-8.7-59.4-8.6-89.4c0.1-30.4,3.3-60.6,7.3-90.6c4.1-30.2,9.4-60.4,11.2-90.8
				c1.5-25.8,1.7-56.4-14.3-78.2c-16.1-22-44.6-24.7-69.7-20.6c-25.9,4.3-50.1,16.2-71,31.9c-21.4,16.2-39.8,36-55.7,57.5
				c-17.1,23.1-31.1,48.2-44.4,73.6c-13.5,25.9-26.3,52.3-40.4,77.9c-13.9,25.2-29.2,49.5-47,72.1c-17.2,21.8-36.4,42.1-57.6,60
				c-21.4,18.1-45,33.5-69,47.9c-25.9,15.5-52.2,30.5-78.6,45.2c-13.2,7.4-26.3,14.7-39.7,21.6c-13,6.7-26.2,13.2-38.5,21.2
				c-22.9,14.9-42.6,34.3-59.1,56c-17,22.4-30.3,47.1-43.3,71.9c-14.1,26.8-27.7,53.9-41.8,80.7c-14.2,26.9-28.6,53.8-42.3,80.9
				c-9.2,18.1-17.9,36.5-25.4,55.3h215.9c5.7-19.3,12.3-38.3,19.6-57c10.5-26.7,22.7-52.8,37.4-77.4c14.3-24,31-46.7,49.7-67.5
				c18.7-20.8,39.3-39.9,61.5-56.9c22.9-17.6,47.7-32.7,72.2-47.8c24.5-15.1,49-30,75.2-42.3c24.7-11.6,51-22.5,78.7-23.3
				c13.4-0.4,26.8,1.6,39.2,6.7c11.7,4.8,22.2,12.3,31.5,20.9c19.2,17.9,34.4,40.1,50.7,60.5c18.8,23.6,37.7,47,57.4,69.8
				c17.2,19.9,36.8,38,59.3,51.8c23.7,14.5,50.3,23.7,77.7,28.1c29.3,4.7,59.2,4.1,88.6,1.7c30.5-2.5,60.8-6.9,91.1-11.3
				c30.4-4.4,60.7-8.7,91.2-12c30.5-3.3,61.2-5.7,91.9-6.9c16.4-0.6,32.8-0.9,49.2-1v-179.6c-3.8,0.6-7.5,1.2-11.3,1.9
				C1914.5,1163.5,1884.9,1170.3,1855.5,1177.6z"/>
		</g>
	</g>
	<g style="clip-path:url(#SVGID_00000042014877275397626710000000500887116138245311_);">
		
			<image style="overflow:visible;opacity:0.3;" width="5925" height="2802" xlink:href="B36EA8DBEBC65AB1.png"  transform="matrix(0.24 0 0 0.24 683.76 977.52)">
		</image>
		<g>
			<path class="st2" d="M956.6,1451.6c11.4-25.5,25.2-50,41.9-72.4c16.1-21.5,34.8-41,55.8-57.7c21.5-17,45.3-31.8,70.7-42.1
				c25.7-10.4,53.3-15.8,81-11.5c26.9,4.1,50.4,17.1,71.1,34.4c20.4,17,38.9,36.6,57.9,55.1c20.2,19.8,40.5,39.7,63.8,55.7
				c22.4,15.4,47.4,26.7,73.6,33.7c28.5,7.7,58.2,10.1,87.6,9.6c30.4-0.6,60.7-4.1,90.8-8.1c30.4-4,60.8-8.2,91.3-11.1
				c30.4-2.9,60.9-4.4,91.5-3.8c30.1,0.5,60.2,3,89.9,8.2c10.8,1.9,21.5,4.2,32.1,6.9v-112.4c-16.4,0.1-32.8,0.4-49.2,1
				c-30.7,1.2-61.3,3.6-91.9,6.9c-30.5,3.3-60.8,7.6-91.2,12c-30.3,4.4-60.6,8.8-91.1,11.3c-29.4,2.4-59.4,3-88.6-1.7
				c-27.4-4.4-54-13.5-77.7-28.1c-22.5-13.8-42.1-31.9-59.3-51.8c-19.7-22.8-38.6-46.3-57.4-69.8c-16.3-20.5-31.4-42.6-50.7-60.5
				c-9.3-8.6-19.7-16-31.5-20.9c-12.4-5.1-25.8-7.1-39.2-6.7c-27.7,0.9-54,11.7-78.7,23.3c-26.1,12.3-50.6,27.2-75.2,42.3
				c-24.6,15.2-49.3,30.2-72.2,47.8c-22.1,17-42.8,36.1-61.5,56.9c-18.7,20.8-35.3,43.5-49.7,67.5c-14.7,24.7-26.9,50.7-37.4,77.4
				c-7.4,18.7-13.9,37.7-19.6,57h104.1C943.3,1483.6,949.5,1467.4,956.6,1451.6z"/>
		</g>
	</g>
	<g style="clip-path:url(#SVGID_00000042014877275397626710000000500887116138245311_);">
		
			<image style="overflow:visible;opacity:0.3;" width="5491" height="2224" xlink:href="B36EA8DBEBC65AB2.png"  transform="matrix(0.24 0 0 0.24 787.92 1116.24)">
		</image>
		<g>
			<path class="st2" d="M1833.7,1433.5c-30.6-0.6-61.1,0.9-91.5,3.8c-30.5,2.9-60.9,7.2-91.3,11.1c-30.1,3.9-60.4,7.5-90.8,8.1
				c-29.5,0.5-59.1-1.9-87.6-9.6c-26.2-7.1-51.3-18.3-73.6-33.7c-23.3-16.1-43.7-36-63.8-55.7c-19-18.6-37.5-38.1-57.9-55.1
				c-20.7-17.3-44.2-30.3-71.1-34.4c-27.7-4.2-55.3,1.1-81,11.5c-25.5,10.3-49.2,25.1-70.7,42.1c-21,16.7-39.8,36.2-55.8,57.7
				c-16.7,22.4-30.5,46.9-41.9,72.4c-7.1,15.8-13.2,31.9-18.6,48.4h116.3c15.9-25.7,36.5-48.3,63.3-65.4c7.3-4.6,15.2-7.9,23.2-10.6
				c9.9-3.3,20.5-4.6,31.1-5.3c28.5-0.7,55,9.9,80.1,23.8c0.7,0.7,1.3,1.3,2,2c2.6,1.3,5.3,2.6,7.9,4c7.9,5.3,14.6,8.6,22.5,13.9
				c6.6,5.3,13.2,8.6,19.9,13.9c6.6,4,11.9,7.3,18.5,11.3c2.6,2,4.6,3.3,7.3,5.3c4.1,2.5,8.1,4.8,12.1,7.1h613.6v-51.5
				c-10.6-2.7-21.3-5-32.1-6.9C1893.9,1436.5,1863.8,1434.1,1833.7,1433.5z"/>
		</g>
	</g>
	<g style="clip-path:url(#SVGID_00000042014877275397626710000000500887116138245311_);">
		
			<image style="overflow:visible;opacity:0.3;" width="2450" height="1589" xlink:href="B36EA8DBEBC65AB0.png"  transform="matrix(0.24 0 0 0.24 904.08 1268.64)">
		</image>
		<g>
			<path class="st2" d="M1322.7,1487.6c-6.6-4-11.9-7.3-18.5-11.3c-6.6-5.3-13.2-8.6-19.9-13.9c-7.9-5.3-14.6-8.6-22.5-13.9
				c-2.6-1.3-5.3-2.6-7.9-4c-0.7-0.7-1.3-1.3-2-2c-25.2-13.9-51.6-24.5-80.1-23.8c-10.6,0.7-21.2,2-31.1,5.3
				c-7.9,2.6-15.9,6-23.2,10.6c-26.8,17.1-47.4,39.6-63.3,65.4h287.9c-4-2.3-8-4.6-12.1-7.1
				C1327.3,1490.9,1325.4,1489.6,1322.7,1487.6z"/>
		</g>
	</g>
	<g style="clip-path:url(#SVGID_00000042014877275397626710000000500887116138245311_);">
		
			<image style="overflow:visible;opacity:0.3;" width="7426" height="4782" xlink:href="B36EA8DBEBC65ACE.png"  transform="matrix(0.24 0 0 0.24 224.4 -250.08)">
		</image>
		<g>
			<path class="st2" d="M1599.1-86.4c27.4,14.9,55.8,27.8,82.2,44.8c25.3,16.3,48.7,37,64.7,63.8c15,25.3,21.5,54.6,19,84.3
				c-2.5,30.7-13.7,59.6-30.1,84.9c-18.6,28.6-43.5,51.1-67,75l-1,0.7c-23.7,15.9-46.4,33.6-71.2,47.7c-29.6,17-61.2,30.4-93,42.2
				c-32.9,12.2-66.5,22.1-99.9,32.9c-34.4,11.1-68.7,22.3-103,33.3c-32.6,10.5-64.6,22.3-96.1,36.2c-31.3,13.8-62,29.1-92.3,45.2
				c-31.4,16.7-62.2,34.8-93.5,51.7c-15.7,8.4-31.4,16.6-47.3,24.6c-15.8,7.9-31.6,15.8-48,22.2c-31.2,12.2-64.9,17.6-97.9,12.7
				c-27.1-4-52.9-14.8-74.8-32.2c-22.3-17.7-39.8-41.1-53.4-66.7c-16.7-31.5-29.4-65.2-42.5-98.5c-13.1-33.4-27.1-66.8-43.3-98.7
				c-16.2-31.7-36.7-60.3-56.2-89.7c-20.1-30.2-38.8-61.5-56.9-93c-8.9-15.4-17.8-30.9-25.5-47.1c-7.7-16.1-13.8-32.9-19.7-49.8
				c-12-34.3-22.7-69.1-32.5-104.2c-3.3-11.9-6.5-23.8-9.7-35.8h-35.5c3.6,15.8,7.1,31.7,10.7,47.6c8.1,36.3,15.5,72.9,25,108.9
				c9.2,34.5,20.1,68.9,34,101.7c13.9,33,32.2,64.1,50.2,94.8c17.2,29.4,33.6,59.5,48.7,90.1c15.2,30.8,27.4,62.5,36.3,96
				c9.4,35.8,18.3,71.7,28.4,107.3c9.2,32.5,20.2,65,39.3,92.6c17.3,25.1,40.1,45.2,64.8,61.8c26.8,18.1,56.2,31.8,87.1,39.9
				c31.1,8.1,63.2,10,94.2,0.2c31.3-9.9,59.5-30.7,85-51.8c13.3-11,26-22.7,39.2-33.8c13.7-11.6,27.6-22.9,41.5-34.2
				c27.4-22.2,54.5-44.6,83.8-64.1c28.7-19.1,58.6-36.3,89.3-51.6c30.6-15.3,62-28.4,94-39.9c32-11.5,64.6-21,97.4-29.7
				c34.5-9.2,69.1-18.6,103.4-28.5c33.2-9.6,66.4-19.2,98.4-32.8c31.6-13.4,61-30.7,89.6-50.3c8.2-5.6,16.3-11.2,24.6-16.7l1-0.7
				c11.5-12.3,24.1-21.7,35.2-34.5c3.2-3.2,7.1-6.3,10.3-9.5c3.2-4,6.3-6.4,9.5-10.4c0.8-0.8,0.8-2.4,1.6-3.2
				c43-48.7,65.5-112.7,58-179.1c-5.6-49.2-25.4-91.4-53.7-130.6c-10.6-14.2-21.8-27.1-33.5-39.3h-192.3
				C1583.3-95.2,1591.3-90.7,1599.1-86.4z"/>
		</g>
	</g>
	<g style="clip-path:url(#SVGID_00000042014877275397626710000000500887116138245311_);">
		
			<image style="overflow:visible;opacity:0.3;" width="6899" height="4240" xlink:href="B36EA8DBEBC65AD1.png"  transform="matrix(0.24 0 0 0.24 259.92 -250.08)">
		</image>
		<g>
			<path class="st2" d="M1428.9-68.1c21.4,24.3,48.8,42.5,75.6,59.5C1532,8.9,1560.8,25,1586.8,45c23.8,18.3,46.1,42.1,49.6,74.5
				c3.2,29.6-9.5,59-25.6,82.4c-17.8,25.9-41.9,44.1-64.7,64.6l-1,0.7c-6.8,4.2-13.3,8.8-20.1,12.9c-6.9,4.2-14.2,7.6-21.4,11
				c-14.9,7.1-29.7,14.3-44.8,20.9c-32.5,14.3-66.2,25.1-99.8,35.8c-33.8,10.8-67.6,21.6-101.5,32.1
				c-33.8,10.5-67.4,21.5-100.4,34.7c-32.9,13.2-65.4,27.6-98.1,41.6c-31.4,13.5-62.6,27.8-95,38.7c-32.1,10.8-66.1,19-100,16.3
				c-31.1-2.5-60.3-14.7-83.8-36.3c-10.6-9.7-19.9-20.8-28.5-32.5c-10-13.6-17.4-28.8-25.4-43.7c-17-32-32.9-64.7-49.4-97
				c-16.5-32.1-36.7-61.5-57.1-90.8c-20.7-29.7-43.1-58-65-86.8c-10.5-13.8-21.6-27.4-29.5-43.1c-7.7-15.2-16.8-29.5-24.3-44.8
				c-15.4-31.5-27.9-64.8-39.6-98c-4.5-12.7-8.8-25.4-12.8-38.3h-38.4c3.1,12,6.4,23.9,9.7,35.8c9.8,35.1,20.5,69.9,32.5,104.2
				c5.9,16.9,12,33.7,19.7,49.8c7.7,16.1,16.6,31.6,25.5,47.1c18.2,31.5,36.8,62.8,56.9,93c19.5,29.4,40,58,56.2,89.7
				c16.3,31.9,30.2,65.2,43.3,98.7c13,33.3,25.8,67,42.5,98.5c13.6,25.6,31.1,49.1,53.4,66.7c21.9,17.3,47.8,28.2,74.8,32.2
				c33.1,4.9,66.7-0.6,97.9-12.7c16.4-6.4,32.2-14.3,48-22.2c15.9-7.9,31.7-16.1,47.3-24.6c31.4-16.9,62.1-35,93.5-51.7
				c30.3-16.1,61-31.4,92.3-45.2c31.5-13.8,63.5-25.7,96.1-36.2c34.4-11,68.7-22.2,103-33.3c33.3-10.7,67-20.7,99.9-32.9
				c31.8-11.8,63.4-25.2,93-42.2c24.7-14.2,47.4-31.8,71.2-47.7l1-0.7c23.5-23.9,48.4-46.4,67-75c16.4-25.3,27.6-54.2,30.1-84.9
				c2.4-29.7-4-59.1-19-84.3c-16-26.8-39.3-47.4-64.7-63.8c-26.4-17-54.8-29.9-82.2-44.8c-7.9-4.3-15.8-8.8-23.6-13.6h-168.4
				C1413.1-88.5,1420.4-77.8,1428.9-68.1z"/>
		</g>
	</g>
	<g style="clip-path:url(#SVGID_00000042014877275397626710000000500887116138245311_);">
		
			<image style="overflow:visible;opacity:0.3;" width="6202" height="3800" xlink:href="B36EA8DBEBC65AD2.png"  transform="matrix(0.24 0 0 0.24 298.56 -250.08)">
		</image>
		<g>
			<path class="st2" d="M501,36.3c7.5,15.3,16.6,29.6,24.3,44.8c7.9,15.7,19,29.3,29.5,43.1c21.9,28.7,44.3,57,65,86.8
				c20.4,29.4,40.6,58.7,57.1,90.8c16.6,32.3,32.4,65,49.4,97c8,14.9,15.4,30.1,25.4,43.7c8.6,11.7,17.9,22.8,28.5,32.5
				c23.5,21.6,52.7,33.8,83.8,36.3c33.9,2.7,67.8-5.5,100-16.3c32.4-10.9,63.6-25.2,95-38.7c32.6-14,65.1-28.4,98.1-41.6
				c33-13.2,66.6-24.2,100.4-34.7c33.9-10.5,67.7-21.3,101.5-32.1c33.6-10.7,67.4-21.5,99.8-35.8c15.1-6.6,30-13.8,44.8-20.9
				c7.3-3.5,14.5-6.8,21.4-11c6.8-4.1,13.3-8.7,20.1-12.9l1-0.7c22.8-20.4,46.9-38.7,64.7-64.6c16.2-23.4,28.8-52.8,25.6-82.4
				c-3.5-32.4-25.8-56.2-49.6-74.5c-26-20-54.8-36.1-82.3-53.6c-26.7-17-54.2-35.2-75.6-59.5c-8.5-9.7-15.8-20.4-21.7-31.9h-126.3
				c-0.8,24,3.5,47.8,17.1,70.8c20.7,34.9,51.8,53.7,83.7,74.2c9.1,6,17.4,11.9,26.5,17.9c6.1,4.2,11.4,8.5,17.4,12.7
				c21.9,16.9,43.1,33,54,58.7c6.5,16.5,6.8,34.5,0.2,51.5c-7.4,17.8-21.7,30.5-34.3,44.3l-1,0.7c-3.6,2.8-7.2,5.4-11,8
				c-27.9,18.8-59.7,31.8-91.2,42.2c-32.7,10.8-66.2,18.4-99.6,26.7c-33.8,8.4-67.4,17.9-100.5,28.9c-33.7,11.3-66.7,24.6-100.1,37
				c-16.8,6.3-33.7,12.4-50.6,18.5c-16.5,5.9-32.9,12-50.1,14.9c-29.6,4.9-61.8,3.4-89.2-10.1c-23-11.3-41.5-30.1-57.1-50.9
				c-8.5-11.2-16.7-23-23.7-35.3c-8.5-14.8-15.5-30.5-24-45.3c-17.5-30.7-38.5-59.9-60.1-87.5c-21.6-27.8-47.4-51.6-71.3-77.1
				c-23.6-25.2-46.3-51.3-65.4-80.6C532-8.8,516.1-40,502.4-72.1c-3.9-9.2-7.7-18.5-11.3-27.9h-42.5c4.1,12.8,8.4,25.6,12.8,38.3
				C473.1-28.6,485.6,4.8,501,36.3z"/>
		</g>
	</g>
	<g style="clip-path:url(#SVGID_00000042014877275397626710000000500887116138245311_);">
		
			<image style="overflow:visible;opacity:0.3;" width="5391" height="3373" xlink:href="B36EA8DBEBC65AD0.png"  transform="matrix(0.24 0 0 0.24 341.04 -250.08)">
		</image>
		<g>
			<path class="st2" d="M550.8,20.2c19,29.3,41.7,55.4,65.4,80.6c23.9,25.5,49.7,49.3,71.3,77.1c21.5,27.7,42.5,56.8,60.1,87.5
				c8.4,14.8,15.5,30.5,24,45.3c7.1,12.3,15.2,24,23.7,35.3c15.7,20.7,34.1,39.6,57.1,50.9c27.5,13.5,59.6,15,89.2,10.1
				c17.3-2.9,33.6-9,50.1-14.9c16.9-6,33.7-12.2,50.6-18.5c33.3-12.4,66.4-25.7,100.1-37c33.1-11.1,66.7-20.6,100.5-28.9
				c33.3-8.2,66.9-15.8,99.6-26.7c31.4-10.4,63.3-23.4,91.2-42.2c3.7-2.5,7.4-5.2,11-8l1-0.7c12.7-13.8,26.9-26.5,34.3-44.3
				c6.6-17,6.3-35-0.2-51.5c-10.9-25.6-32.1-41.7-54-58.7c-6.1-4.2-11.4-8.5-17.4-12.7c-9.1-6-17.4-11.9-26.5-17.9
				c-31.9-20.5-63-39.3-83.7-74.2c-13.5-23-17.8-46.8-17.1-70.8h-140.9c-14.9,18.3-29.9,36.4-44.9,54.6
				c-21.5,26.2-44.1,51.8-59.5,82.7c-14,28.1-22.2,58.6-26.7,89.9c-4.3,29.8-9.7,59.8-31.5,81.4l-1,0.7
				c-13.8,11-30.4,18.3-47.9,16.4c-15.5-1.6-29-10.1-41.3-19.6c-12.8-9.8-23-22.6-34.5-34.1c-22.5-22.5-47.1-42.7-73.1-60.6
				c-26.9-18.5-55.7-33.2-83.5-50.2c-14.1-8.7-28-17.9-41.1-28.1c-13.2-10.3-25.6-21.7-37.6-33.4c-24.1-23.4-44.1-50.1-61.7-79.2
				c-4.1-6.8-8-13.6-11.8-20.5h-52.7c3.6,9.4,7.4,18.7,11.3,27.9C516.1-40,532-8.8,550.8,20.2z"/>
		</g>
	</g>
	<g style="clip-path:url(#SVGID_00000042014877275397626710000000500887116138245311_);">
		
			<image style="overflow:visible;opacity:0.3;" width="3735" height="2609" xlink:href="B36EA8DBEBC65AD6.png"  transform="matrix(0.24 0 0 0.24 393.6 -250.08)">
		</image>
		<g>
			<path class="st2" d="M555.7-79.5c17.6,29.1,37.6,55.8,61.7,79.2c12,11.7,24.5,23.1,37.6,33.4c13.2,10.2,27,19.5,41.1,28.1
				c27.7,17,56.6,31.7,83.5,50.2c26,17.9,50.5,38.1,73.1,60.6c11.4,11.4,21.7,24.3,34.5,34.1c12.4,9.4,25.8,17.9,41.3,19.6
				c17.5,1.8,34.1-5.5,47.9-16.4l1-0.7c21.8-21.5,27.2-51.6,31.5-81.4c4.5-31.3,12.7-61.8,26.7-89.9c15.4-30.9,38-56.5,59.5-82.7
				c15-18.2,30-36.3,44.9-54.6H543.8C547.6-93.1,551.6-86.2,555.7-79.5z"/>
		</g>
	</g>
	<g style="clip-path:url(#SVGID_00000042014877275397626710000000500887116138245311_);">
		
			<image style="overflow:visible;opacity:0.3;" width="3277" height="4359" xlink:href="B36EA8DBEBC65AD3.png"  transform="matrix(0.24 0 0 0.24 -260.64 603.84)">
		</image>
		<g>
			<path class="st2" d="M-35.5,1145.5c17.5,13.2,32.3,30,41.7,49.9c10.6,22.3,13.5,46.6,13.2,71.1c-0.3,30-5.5,59.6-12.8,88.7
				c-7.3,29.5-15.3,58.9-24.3,88c-5.9,19.2-12.3,38.2-19.7,56.9h92.2c8.1-27.1,16.4-54.2,26.5-80.7c10.1-26.3,22.2-52.1,37.1-76.1
				c14.4-23.1,31.7-46.2,54.8-61.1c11.8-7.6,24.9-12.8,37.7-18.4c13.9-6.1,27.9-12.1,42-17.7c25.9-10.4,52.6-19.8,71.2-41.9
				c17.9-21.4,24.1-50.8,26.8-77.8c1.5-15.1,2-30.3,3.1-45.4c1.1-15.3,2.5-30.7,4.1-46c3.1-30.6,6.8-61.1,10.7-91.6
				c3.8-30.1,8.3-60.3,6.6-90.7c-1.5-27.2-7.1-55.9-27.5-75.5c-19.1-18.4-46.3-26-72.4-22.2c-26.2,3.8-50.4,18-71.1,33.9
				c-21.8,16.8-40.9,36.6-57.7,58.3c-17.5,22.6-32.8,46.7-48.6,70.5c-15.7,23.5-31.9,47.6-52.8,67c-20.7,19.2-45.9,30.5-73.9,34
				c-27.4,3.4-55.3-0.1-81.9-6.8v90c1,0.5,2,1,3,1.5C-82.7,1115.5-57.7,1128.8-35.5,1145.5z"/>
		</g>
	</g>
	<g style="clip-path:url(#SVGID_00000042014877275397626710000000500887116138245311_);">
		
			<image style="overflow:visible;opacity:0.3;" width="1792" height="2910" xlink:href="B36EA8DBEBC65AF5.png"  transform="matrix(0.24 0 0 0.24 -260.64 951.6)">
		</image>
		<g>
			<path class="st2" d="M-73.4,1293.4c3.9,28.2,1.7,57.2-3.6,85.2c-5.3,27.8-14.1,54.9-25,81c-2.7,6.4-5.5,12.7-8.5,19v21.4h73.2
				c7.4-18.7,13.8-37.7,19.7-56.9c8.9-29.1,16.9-58.4,24.3-88c7.2-29.1,12.4-58.6,12.8-88.7c0.3-24.5-2.6-48.8-13.2-71.1
				c-9.5-19.9-24.2-36.7-41.7-49.9c-22.2-16.7-47.2-30-71.9-42.4c-1-0.5-2-1-3-1.5v107.2c3,3.7,5.9,7.5,8.6,11.4
				C-86.7,1242.1-77,1267-73.4,1293.4z"/>
		</g>
	</g>
	<g style="clip-path:url(#SVGID_00000042014877275397626710000000500887116138245311_);">
		
			<image style="overflow:visible;opacity:0.3;" width="1414" height="2375" xlink:href="B36EA8DBEBC65AF7.png"  transform="matrix(0.24 0 0 0.24 -260.64 1058.64)">
		</image>
		<g>
			<path class="st2" d="M-102,1459.6c10.9-26.1,19.7-53.2,25-81c5.3-27.9,7.5-56.9,3.6-85.2c-3.6-26.4-13.4-51.3-28.5-73.2
				c-2.7-3.9-5.6-7.7-8.6-11.4v269.8C-107.5,1472.4-104.6,1466-102,1459.6z"/>
		</g>
	</g>
</g>
</svg>
