<svg xmlns="http://www.w3.org/2000/svg" xmlns:xlink="http://www.w3.org/1999/xlink" width="530" height="530" viewBox="0 0 530 530">
  <defs>
    <filter id="Rectangle_5173" x="0" y="0" width="530" height="530" filterUnits="userSpaceOnUse">
      <feOffset dy="3" input="SourceAlpha"/>
      <feGaussianBlur stdDeviation="3" result="blur"/>
      <feFlood flood-opacity="0.161"/>
      <feComposite operator="in" in2="blur"/>
      <feComposite in="SourceGraphic"/>
    </filter>
  </defs>
  <g id="Group_14020" data-name="Group 14020" transform="translate(16384 16299)">
    <g transform="matrix(1, 0, 0, 1, -16384, -16299)" filter="url(#Rectangle_5173)">
      <rect id="Rectangle_5173-2" data-name="Rectangle 5173" width="512" height="512" rx="256" transform="translate(9 6)" fill="#2f3842"/>
    </g>
    <g id="Group_13872" data-name="Group 13872" transform="translate(-16581.289 -16407.99)">
      <path id="Path_4923" data-name="Path 4923" d="M311.24,405.112a138.154,138.154,0,0,0,11.5,27.042,133.475,133.475,0,0,0,51.49,51.9c22.016,12.627,47.9,19.011,76.922,19.011,47.287,0,85.346-15.47,115.821-47.2L537.356,428a129.377,129.377,0,0,1-25.5,19.959c-14.361,8.37-32.854,12.627-54.977,12.627-20.3,0-38.559-4.775-54.226-14.183A95.493,95.493,0,0,1,366.074,406.9c-8.173-16.132-12.323-34.374-12.323-54.226s4.06-37.415,12.09-53.26A96.911,96.911,0,0,1,401.7,260.3c15.578-9.658,34.3-14.558,55.657-14.558,19.3,0,36.842,4.578,52.187,13.628a123.673,123.673,0,0,1,23.268,17.759l29.867-30.118a107.379,107.379,0,0,0-41.635-29.259C499.6,209.4,476.083,205.18,451.152,205.18c-29.259,0-55.156,6.528-76.958,19.387a136.515,136.515,0,0,0-51.4,52.885,141.645,141.645,0,0,0-10.516,24.305" transform="translate(17.307 16.708)" fill="none"/>
      <path id="Path_4924" data-name="Path 4924" d="M551.765,389.967l-12.841,15.774c-9.676,11.875-19.369,20.693-28.812,26.219-8.5,4.954-20.567,7.476-35.894,7.476-13.539,0-24.9-2.879-34.75-8.781A57.416,57.416,0,0,1,417.2,406.529c-5.544-10.945-8.245-23.089-8.245-37.129s2.611-25.521,7.994-36.181a58.882,58.882,0,0,1,22.034-24.037c9.5-5.884,21.5-8.871,35.7-8.871,12.609,0,23.393,2.736,32.944,8.37a89.064,89.064,0,0,1,26.433,24.109l13.109,17.8L629.9,267.154l-9.193-12.984c-18.368-25.915-41.439-44.425-68.606-55.013-25.861-10.051-53.994-15.166-83.629-15.166-36.109,0-68.48,8.281-96.2,24.627a175.754,175.754,0,0,0-65.3,67.157,181.824,181.824,0,0,0-16.829,42.637h39.436A142.251,142.251,0,0,1,340.1,294.106a136.639,136.639,0,0,1,51.4-52.885c21.819-12.859,47.716-19.387,76.958-19.387,24.931,0,48.45,4.239,69.893,12.573a107.249,107.249,0,0,1,41.635,29.259L550.12,293.784a124.251,124.251,0,0,0-23.268-17.759c-15.327-9.032-32.89-13.628-52.187-13.628-21.354,0-40.08,4.9-55.657,14.558a96.921,96.921,0,0,0-35.859,39.114c-8.012,15.846-12.09,33.766-12.09,53.26s4.149,38.076,12.323,54.226a95.6,95.6,0,0,0,36.574,39.507c15.667,9.407,33.927,14.183,54.226,14.183,22.123,0,40.616-4.257,54.977-12.627a129.226,129.226,0,0,0,25.5-19.959l29.617,27.864c-30.475,31.727-68.534,47.2-115.821,47.2-29.027,0-54.906-6.4-76.922-19.011a133.475,133.475,0,0,1-51.49-51.9,137.235,137.235,0,0,1-11.5-27.042H289.29a178,178,0,0,0,17.724,45.552,172.633,172.633,0,0,0,65.69,66.245c27.811,15.953,60.039,24.037,95.754,24.037,64.778,0,117.556-25.092,156.884-74.6l10.82-13.628-84.416-79.444Z" transform="translate(0 0)" fill="#f0c498"/>
    </g>
  </g>
</svg>
