<svg id="ilawyer_logo" data-name="ilawyer logo" xmlns="http://www.w3.org/2000/svg" width="228.245" height="19.977" viewBox="0 0 228.245 19.977">
  <path id="Path_73" data-name="Path 73" d="M98.575,8.752v9c0,.767.434,1.167,1.268,1.167h1V7.585h-1C99.009,7.585,98.575,7.985,98.575,8.752Z" transform="translate(-41.82 -3.183)" fill="#2a333d"/>
  <path id="Path_74" data-name="Path 74" d="M109.98,12.348V.575h-1c-.833,0-1.267.4-1.267,1.167V12.314a4.14,4.14,0,0,0,.6,2.3,3.311,3.311,0,0,0,1.434,1.268,1.512,1.512,0,0,0,1.134.133.855.855,0,0,0,.7-.934V14.049a1.542,1.542,0,0,1-1.6-1.7Z" transform="translate(-45.654 -0.241)" fill="#2a333d"/>
  <path id="Path_75" data-name="Path 75" d="M126.1,8.287a5.82,5.82,0,0,0-3.736-1.334,5.689,5.689,0,0,0-3.735,1.334,4.326,4.326,0,0,0-1.668,3.4v2.634a4.12,4.12,0,0,0,1.668,3.369,5.461,5.461,0,0,0,3.735,1.334,4.86,4.86,0,0,0,3.469-1.267,1.355,1.355,0,0,0,1.268.934h.667v-7A4.182,4.182,0,0,0,126.1,8.287Zm-.6,6.036a2.053,2.053,0,0,1-.834,1.668,3.776,3.776,0,0,1-2.334.767A3.641,3.641,0,0,1,120,15.991a2.254,2.254,0,0,1-.834-1.668V11.689A2.052,2.052,0,0,1,120,10.021a3.606,3.606,0,0,1,2.334-.8,3.543,3.543,0,0,1,2.334.8,2.253,2.253,0,0,1,.834,1.668Z" transform="translate(-49.536 -2.917)" fill="#2a333d"/>
  <path id="Path_76" data-name="Path 76" d="M153.875,8.752l-.034,5.9a2.6,2.6,0,0,1-.567,1.868,2.321,2.321,0,0,1-1.7.567,2.246,2.246,0,0,1-1.634-.6,2.719,2.719,0,0,1-.633-1.835v-7h-1c-.834,0-1.268.4-1.268,1.167v5.8a2.455,2.455,0,0,1-.633,1.834,2.141,2.141,0,0,1-1.634.6,2.322,2.322,0,0,1-1.7-.567,2.718,2.718,0,0,1-.566-1.868v-7h-1c-.834,0-1.268.4-1.268,1.167v5.8a4.707,4.707,0,0,0,1.2,3.4,4.839,4.839,0,0,0,6.737-.2,4.271,4.271,0,0,0,3.4,1.467,4.5,4.5,0,0,0,3.335-1.268,4.6,4.6,0,0,0,1.2-3.4v-7h-1A1.076,1.076,0,0,0,153.875,8.752Z" transform="translate(-59.3 -3.183)" fill="#2a333d"/>
  <path id="Path_77" data-name="Path 77" d="M178.67,8.452l-3.035,8.538H175.6l-3.335-9.372h-1.4a.628.628,0,0,0-.634.3.848.848,0,0,0,0,.7l3.335,9.338a1.754,1.754,0,0,0,1.367,1.1l-.434,1.134a.872.872,0,0,1-.567.567,2.121,2.121,0,0,1-.767.167v1.034a.858.858,0,0,0,.667.934A1.823,1.823,0,0,0,175,22.759a3.494,3.494,0,0,0,1.267-1.134,3.785,3.785,0,0,0,.367-.734c.1-.267.233-.534.333-.834l4.4-12.473-1.534.033A1.143,1.143,0,0,0,178.67,8.452Z" transform="translate(-71.855 -3.183)" fill="#2a333d"/>
  <path id="Path_78" data-name="Path 78" d="M199.462,15.858c-.133.1-.2.2-.3.266a2.816,2.816,0,0,1-1.067.467,4.6,4.6,0,0,1-1.634.1,2.943,2.943,0,0,1-1.534-.434,1.407,1.407,0,0,1-.8-1.267v-.934a.751.751,0,0,0,.367.167,1.492,1.492,0,0,0,.434.034h2.735a5.034,5.034,0,0,0,1.467-.2,3.685,3.685,0,0,0,1.367-.634,3.278,3.278,0,0,0,.967-1.067,3.147,3.147,0,0,0,.367-1.668A3.3,3.3,0,0,0,201.2,8.72a4.374,4.374,0,0,0-1.4-1.167,6.721,6.721,0,0,0-3-.6,6.1,6.1,0,0,0-2.635.567,3.914,3.914,0,0,0-1.9,1.834,4.177,4.177,0,0,0-.367,1.668v3.669a4.559,4.559,0,0,0,.4,1.934,3.488,3.488,0,0,0,1.267,1.5,4.854,4.854,0,0,0,1.634.7,8.5,8.5,0,0,0,1.734.167,6.624,6.624,0,0,0,2.2-.367,4.853,4.853,0,0,0,1.935-1.167,4.62,4.62,0,0,0,.833-1.268l-1.1-.533A1,1,0,0,0,199.462,15.858Zm-5.336-4.9a1.358,1.358,0,0,1,.5-1.067,2.755,2.755,0,0,1,1.134-.533,7.043,7.043,0,0,1,1.734-.133,3.224,3.224,0,0,1,1.668.567,1.117,1.117,0,0,1,.434,1.034,1.19,1.19,0,0,1-.634.934,1.928,1.928,0,0,1-1.1.267h-3.736Z" transform="translate(-80.974 -2.917)" fill="#2a333d"/>
  <path id="Path_79" data-name="Path 79" d="M214.05,8.485a3.727,3.727,0,0,0-1.3,3.069v6.2c0,.767.434,1.167,1.268,1.167h1v-7.37a1.643,1.643,0,0,1,.533-1.334,1.724,1.724,0,0,1,1.067-.367h.3c.8,0,1.167-.434,1.167-1.267v-1h-1.467A3.832,3.832,0,0,0,214.05,8.485Z" transform="translate(-89.726 -3.183)" fill="#2a333d"/>
  <path id="Path_80" data-name="Path 80" d="M236.189,7.068a4.323,4.323,0,0,0-3,1.034l-.434.434a5.137,5.137,0,0,0-.434-.434,4.525,4.525,0,0,0-2.968-1.034,4.345,4.345,0,0,0-3.335,1.3,4.706,4.706,0,0,0-1.2,3.4v5.8c0,.767.434,1.167,1.268,1.167h1v-7a2.777,2.777,0,0,1,.567-1.868,2.409,2.409,0,0,1,1.734-.567,2.162,2.162,0,0,1,1.668.634,2.562,2.562,0,0,1,.634,1.835v5.8c0,.767.434,1.167,1.268,1.167h1v-7a2.559,2.559,0,0,1,.634-1.834,2.163,2.163,0,0,1,1.668-.634,2.322,2.322,0,0,1,1.7.567,2.374,2.374,0,0,1,.5,1.968v5.8c0,.767.434,1.167,1.267,1.167h1v-7a4.761,4.761,0,0,0-1.2-3.4A4.345,4.345,0,0,0,236.189,7.068Z" transform="translate(-94.789 -2.966)" fill="#2a333d"/>
  <path id="Path_81" data-name="Path 81" d="M265.5,8.287a5.755,5.755,0,0,0-3.735-1.334,5.69,5.69,0,0,0-3.736,1.334,4.326,4.326,0,0,0-1.668,3.4v2.634a4.12,4.12,0,0,0,1.668,3.369,5.462,5.462,0,0,0,3.736,1.334,4.913,4.913,0,0,0,3.468-1.267,1.356,1.356,0,0,0,1.268.934h.667v-7A4.182,4.182,0,0,0,265.5,8.287Zm-.567,6.036a2.053,2.053,0,0,1-.833,1.668,3.709,3.709,0,0,1-2.334.767,3.644,3.644,0,0,1-2.335-.767,2.255,2.255,0,0,1-.833-1.668V11.689a2.053,2.053,0,0,1,.833-1.668,3.805,3.805,0,0,1,4.669,0,2.254,2.254,0,0,1,.833,1.668Z" transform="translate(-108.026 -2.917)" fill="#2a333d"/>
  <path id="Path_82" data-name="Path 82" d="M280.877,8.485a3.727,3.727,0,0,0-1.3,3.069v6.2c0,.767.434,1.167,1.268,1.167h1v-7.37a1.643,1.643,0,0,1,.534-1.334,1.723,1.723,0,0,1,1.067-.367h.3c.8,0,1.167-.434,1.167-1.267v-1h-1.468A3.832,3.832,0,0,0,280.877,8.485Z" transform="translate(-117.766 -3.183)" fill="#2a333d"/>
  <path id="Path_83" data-name="Path 83" d="M298.472,9.737c.133-.167.267-.4.434-.634l2.7-4.4h-1.768a1.554,1.554,0,0,0-1.367.8L296.338,8.97c-.267.467-.7.434-1.134.434h-.833V.632h-1c-.834,0-1.268.4-1.268,1.167V14.873c0,.767.434,1.167,1.268,1.167h1V11.671H296.8a1.262,1.262,0,0,1,1.268.833l1.234,2.8a1.309,1.309,0,0,0,1.334.7h1.468l-1.935-4.4A3.371,3.371,0,0,0,298.472,9.737Z" transform="translate(-123.021 -0.265)" fill="#2a333d"/>
  <path id="Path_84" data-name="Path 84" d="M319.324,15.858c-.133.1-.2.2-.3.266a2.814,2.814,0,0,1-1.067.467,4.6,4.6,0,0,1-1.634.1,2.942,2.942,0,0,1-1.534-.434,1.406,1.406,0,0,1-.8-1.267v-.934a.751.751,0,0,0,.367.167,1.49,1.49,0,0,0,.434.034h2.735a5.033,5.033,0,0,0,1.467-.2,3.694,3.694,0,0,0,1.367-.634,3.285,3.285,0,0,0,.967-1.067,3.142,3.142,0,0,0,.367-1.668,3.3,3.3,0,0,0-.634-1.968,4.372,4.372,0,0,0-1.4-1.167,6.724,6.724,0,0,0-3-.6,6.1,6.1,0,0,0-2.635.567,3.913,3.913,0,0,0-1.9,1.834,4.177,4.177,0,0,0-.367,1.668v3.669a4.568,4.568,0,0,0,.4,1.934,3.493,3.493,0,0,0,1.268,1.5,4.849,4.849,0,0,0,1.634.7,8.5,8.5,0,0,0,1.734.167,6.624,6.624,0,0,0,2.2-.367,4.853,4.853,0,0,0,1.935-1.167,4.646,4.646,0,0,0,.833-1.268l-1.1-.533A1,1,0,0,0,319.324,15.858Zm-5.336-4.9a1.358,1.358,0,0,1,.5-1.067,2.756,2.756,0,0,1,1.134-.533,7.043,7.043,0,0,1,1.734-.133,3.222,3.222,0,0,1,1.667.567,1.114,1.114,0,0,1,.434,1.034,1.189,1.189,0,0,1-.634.934,1.928,1.928,0,0,1-1.1.267h-3.735Z" transform="translate(-131.267 -2.917)" fill="#2a333d"/>
  <path id="Path_85" data-name="Path 85" d="M335.11.575h-1.034c-.834,0-1.234.4-1.234,1.167V12.314a4.435,4.435,0,0,0,.567,2.3,3.31,3.31,0,0,0,1.434,1.268,1.617,1.617,0,0,0,1.168.133.859.859,0,0,0,.667-.934V14.049a1.541,1.541,0,0,1-1.568-1.7V6.911h1.467c.767,0,1.168-.434,1.168-1.267v-1H335.11Z" transform="translate(-140.115 -0.241)" fill="#2a333d"/>
  <path id="Path_86" data-name="Path 86" d="M362.322,8.22a5.522,5.522,0,0,0-3.6-1.267,5.432,5.432,0,0,0-3.568,1.267,3.958,3.958,0,0,0-1.568,3.235v6c0,.767.434,1.167,1.268,1.167h1v-7.17a1.962,1.962,0,0,1,.767-1.5,3.472,3.472,0,0,1,4.269,0,1.913,1.913,0,0,1,.767,1.5v6c0,.767.434,1.167,1.267,1.167h1v-7.17A4.135,4.135,0,0,0,362.322,8.22Z" transform="translate(-148.818 -2.917)" fill="#2a333d"/>
  <path id="Path_87" data-name="Path 87" d="M384.582,8.262a6.025,6.025,0,0,0-3.7-1.367,5.753,5.753,0,0,0-3.735,1.334,4.323,4.323,0,0,0-1.668,3.4v2.635a4.215,4.215,0,0,0,1.668,3.369,5.52,5.52,0,0,0,3.735,1.334,5.761,5.761,0,0,0,3.168-.9V18.5a1.892,1.892,0,0,1-1.634,1.934,6.322,6.322,0,0,1-2,.233,4.757,4.757,0,0,1-2-.367l-.2.9a1.1,1.1,0,0,0,.034.934,1.546,1.546,0,0,0,1.034.567,9.886,9.886,0,0,0,1.734.167,7.387,7.387,0,0,0,1.968-.267,4.48,4.48,0,0,0,2.835-2.2,3.771,3.771,0,0,0,.434-1.868v-6.87A4.279,4.279,0,0,0,384.582,8.262Zm-.6,6.036a2.053,2.053,0,0,1-.834,1.668,3.775,3.775,0,0,1-2.334.767,3.642,3.642,0,0,1-2.334-.767,2.255,2.255,0,0,1-.833-1.668V11.664A2.052,2.052,0,0,1,378.479,10a3.607,3.607,0,0,1,2.334-.8,3.481,3.481,0,0,1,2.334.8,2.253,2.253,0,0,1,.834,1.668Z" transform="translate(-158.005 -2.893)" fill="#2a333d"/>
  <path id="Path_88" data-name="Path 88" d="M99.676,2.2a1.11,1.11,0,0,0,1.1-1.1,1.1,1.1,0,0,0-2.2,0A1.11,1.11,0,0,0,99.676,2.2Z" transform="translate(-41.82)" fill="#2a333d"/>
  <path id="Path_89" data-name="Path 89" d="M344.679,8.924v9.005c0,.767.434,1.167,1.267,1.167h1V7.757h-1C345.113,7.757,344.679,8.157,344.679,8.924Z" transform="translate(-145.082 -3.255)" fill="#2a333d"/>
  <path id="Path_90" data-name="Path 90" d="M345.722,2.372a1.11,1.11,0,0,0,1.1-1.1,1.069,1.069,0,0,0-1.1-1.1,1.111,1.111,0,0,0-1.1,1.1A1.111,1.111,0,0,0,345.722,2.372Z" transform="translate(-145.058 -0.071)" fill="#2a333d"/>
  <path id="Path_91" data-name="Path 91" d="M6.1,12.882a15.03,15.03,0,0,0-1.424-.588Q3.856,12,3.467,11.828a1.741,1.741,0,0,1-.587-.389.766.766,0,0,1-.2-.536.83.83,0,0,1,.338-.7,1.526,1.526,0,0,1,.939-.256,1.8,1.8,0,0,1,1.207.377,1.159,1.159,0,0,1,.441.912v.1a.153.153,0,0,0,.153.153H7.228a.153.153,0,0,0,.153-.153v-.192a2.468,2.468,0,0,0-.428-1.437,2.823,2.823,0,0,0-1.188-.964A4.144,4.144,0,0,0,4.035,8.4a4.023,4.023,0,0,0-1.622.306,2.517,2.517,0,0,0-1.1.881,2.3,2.3,0,0,0-.4,1.341,2.1,2.1,0,0,0,.4,1.309,2.908,2.908,0,0,0,1,.836,10.9,10.9,0,0,0,1.449.6q.766.281,1.117.441a1.806,1.806,0,0,1,.555.37.715.715,0,0,1,.2.517.9.9,0,0,1-.332.709A1.511,1.511,0,0,1,4.3,16a2.092,2.092,0,0,1-1.277-.351,1.042,1.042,0,0,1-.472-.862v-.192a.153.153,0,0,0-.153-.153H.945a.153.153,0,0,0-.153.153v.281a2.435,2.435,0,0,0,.415,1.411,2.633,2.633,0,0,0,1.181.932,4.541,4.541,0,0,0,1.788.326,3.748,3.748,0,0,0,2.388-.7,2.286,2.286,0,0,0,.881-1.9,1.992,1.992,0,0,0-.415-1.309A2.837,2.837,0,0,0,6.1,12.882Z" transform="translate(-0.792 -3.524)" fill="#2a333d"/>
  <path id="Path_92" data-name="Path 92" d="M17.619,8.575H16.125a.148.148,0,0,0-.109.045.149.149,0,0,0-.045.109v8.632a.147.147,0,0,0,.045.108.145.145,0,0,0,.109.045h1.494a.153.153,0,0,0,.153-.153V8.728a.153.153,0,0,0-.153-.153Z" transform="translate(-7.161 -3.598)" fill="#2a333d"/>
  <path id="Path_93" data-name="Path 93" d="M28.72,8.575H22.285a.152.152,0,0,0-.153.153V9.98a.152.152,0,0,0,.153.153h2.222a.056.056,0,0,1,.063.064v7.164a.154.154,0,0,0,.154.153h1.493a.154.154,0,0,0,.154-.153V10.2a.056.056,0,0,1,.063-.064H28.72a.154.154,0,0,0,.154-.153V8.728a.154.154,0,0,0-.154-.153Z" transform="translate(-9.746 -3.598)" fill="#2a333d"/>
  <path id="Path_94" data-name="Path 94" d="M42.88,8.575h-5.9a.153.153,0,0,0-.153.153v8.632a.153.153,0,0,0,.153.153h5.9a.154.154,0,0,0,.154-.153V16.122a.154.154,0,0,0-.154-.153H38.692a.057.057,0,0,1-.064-.064V13.836a.057.057,0,0,1,.064-.064h2.745a.152.152,0,0,0,.153-.153V12.38a.152.152,0,0,0-.153-.153H38.692a.057.057,0,0,1-.064-.064V10.184a.057.057,0,0,1,.064-.064H42.88a.154.154,0,0,0,.154-.153V8.728a.154.154,0,0,0-.154-.153Z" transform="translate(-15.912 -3.598)" fill="#2a333d"/>
  <path id="Path_95" data-name="Path 95" d="M61.574,12.929q-.077-.038,0-.077a1.892,1.892,0,0,0,1.085-1.826q0-2.452-3.026-2.452H56.428a.148.148,0,0,0-.109.045.149.149,0,0,0-.045.109v8.632a.147.147,0,0,0,.045.108.145.145,0,0,0,.109.045h3.307a3.589,3.589,0,0,0,2.209-.632,2.191,2.191,0,0,0,.843-1.87A2.163,2.163,0,0,0,61.574,12.929Zm-3.5-2.745a.057.057,0,0,1,.064-.064h1.494a1.38,1.38,0,0,1,.932.287.985.985,0,0,1,.332.786.95.95,0,0,1-.332.766,1.4,1.4,0,0,1-.932.281H58.139a.056.056,0,0,1-.064-.064Zm2.579,5.472a1.321,1.321,0,0,1-.919.3h-1.6a.057.057,0,0,1-.064-.064v-2.12a.056.056,0,0,1,.064-.063h1.583a1.341,1.341,0,0,1,.932.3,1.188,1.188,0,0,1,0,1.647Z" transform="translate(-24.072 -3.598)" fill="#2a333d"/>
  <path id="Path_96" data-name="Path 96" d="M76.419,8.575H74.785a.18.18,0,0,0-.179.115l-1.6,3.4q-.038.076-.077,0l-1.6-3.4a.181.181,0,0,0-.179-.115H69.549c-.094,0-.14.034-.14.1a.187.187,0,0,0,.026.076l2.63,5.286a.178.178,0,0,1,.013.077v3.23a.152.152,0,0,0,.153.153h1.481a.152.152,0,0,0,.153-.153v-3.23a.178.178,0,0,1,.013-.077l2.656-5.286a.138.138,0,0,0,.006-.134A.142.142,0,0,0,76.419,8.575Z" transform="translate(-29.583 -3.598)" fill="#2a333d"/>
</svg>
