<svg id="Layer_1" data-name="Layer 1" xmlns="http://www.w3.org/2000/svg" viewBox="0 0 36.56 31.56">
  <defs>
    <style>
      .cls-1 {
        fill: #ce996e;
      }
    </style>
  </defs>
  <path id="Union_4" data-name="Union 4" class="cls-1" d="M20.54,31.23a1,1,0,0,1,0-1.41L33.17,17.18H1a1,1,0,0,1,0-2H33.26L20.52,1.68a1,1,0,0,1,0-1.41,1,1,0,0,1,1.42,0L22,.31l14.3,15.14,0,0a1.16,1.16,0,0,1,.25.41h0v0h0a.08.08,0,0,0,0,0h0v.35h0a.06.06,0,0,1,0,0h0s0,0,0,0h0a1.17,1.17,0,0,1-.26.46L22,31.22a1,1,0,0,1-.71.3A1,1,0,0,1,20.54,31.23Z" transform="translate(0 0.04)"/>
</svg>
