<svg xmlns="http://www.w3.org/2000/svg" width="36.589" height="31.523" viewBox="0 0 36.589 31.523">
  <path id="Union_4" data-name="Union 4" d="M15576.287,10586.429a1,1,0,0,1,0-1.413l12.632-12.636h-32.171a1,1,0,1,1,0-2h32.261l-12.741-13.5a1,1,0,1,1,1.451-1.373l14.3,15.14.025.023a1,1,0,0,1,.248.41v0l.012.041a.03.03,0,0,0,0,.008c0,.012.006.023.008.035s0,.01,0,.015,0,.021,0,.03l0,.02c0,.01,0,.02,0,.029l0,.02c0,.011,0,.021,0,.032a.106.106,0,0,1,0,.018c0,.017,0,.033,0,.05s0,.033,0,.05a.1.1,0,0,1,0,.017c0,.011,0,.021,0,.032l0,.019c0,.011,0,.021,0,.031s0,.011,0,.016,0,.022-.007.034a.042.042,0,0,1,0,.011c0,.014-.006.026-.01.04h0a.993.993,0,0,1-.262.458l-14.342,14.338a1,1,0,0,1-.708.293A.985.985,0,0,1,15576.287,10586.429Z" transform="translate(-15555.746 -10555.198)" fill="#0b1216"/>
</svg>
