<?xml version="1.0" encoding="utf-8"?>
<!-- Generator: Adobe Illustrator 25.4.2, SVG Export Plug-In . SVG Version: 6.00 Build 0)  -->
<svg version="1.1" id="a" xmlns="http://www.w3.org/2000/svg" xmlns:xlink="http://www.w3.org/1999/xlink" x="0px" y="0px"
	 viewBox="0 0 602 80" style="enable-background:new 0 0 602 80;" xml:space="preserve">
<style type="text/css">
	.st0{fill:#2F3842;}
	.st1{fill:none;}
	.st2{fill:#F0C498;}
</style>
<g>
	<path class="st0" d="M103.5,50.1V33.6h-6.6v-5h18.9v5h-6.5v16.5H103.5z"/>
	<path class="st0" d="M124.8,50.1V28.7h5.7v7.9h7.9v-7.9h5.7v21.5h-5.7v-8.4h-7.9v8.4H124.8z"/>
	<path class="st0" d="M154.4,50.1V28.7h15.5v4.9h-9.8v3.3h8v4.6h-8v3.7h10.4v4.9L154.4,50.1L154.4,50.1z"/>
	<path class="st0" d="M208.4,42.5l3.8,3.6c-2.4,3-5.6,4.5-9.6,4.5c-2.2,0-4.1-0.5-5.8-1.5s-3-2.3-4-4s-1.4-3.6-1.4-5.8
		s0.5-4.1,1.4-5.9s2.3-3,3.9-4c1.7-1,3.6-1.5,5.8-1.5c1.9,0,3.6,0.3,5.2,0.9s3,1.7,4,3.3l-3.8,3.8c-0.6-0.8-1.3-1.5-2.2-2
		c-0.8-0.5-1.8-0.7-2.9-0.7c-1.2,0-2.2,0.3-3.1,0.8c-0.9,0.5-1.5,1.2-2,2.1s-0.7,1.9-0.7,3s0.2,2.2,0.7,3.1c0.5,0.9,1.1,1.6,2,2.1
		c0.9,0.5,1.9,0.8,3,0.8c1.3,0,2.3-0.2,3.1-0.7S207.6,43.4,208.4,42.5L208.4,42.5z"/>
	<path class="st0" d="M218.9,50.1l7.9-21.5h6.5l7.6,21.5h-6.2l-1.4-4.5h-7.2l-1.4,4.5H218.9L218.9,50.1z M227.4,41.5h4.9l-2.4-7.9
		L227.4,41.5L227.4,41.5z"/>
	<path class="st0" d="M247.7,47.5l3.5-4.2c0.6,0.6,1.4,1.1,2.4,1.6c1,0.5,2,0.7,3.2,0.7c0.6,0,1.1-0.1,1.7-0.4
		c0.5-0.2,0.8-0.7,0.8-1.4c0-0.6-0.3-1-0.9-1.4c-0.6-0.4-1.4-0.7-2.5-1.1l-1.2-0.4c-0.9-0.3-1.8-0.7-2.6-1.2c-0.9-0.5-1.6-1.1-2.2-2
		c-0.6-0.8-0.9-1.8-0.9-2.9c0-1.3,0.3-2.5,1-3.6c0.6-1,1.6-1.9,2.8-2.5c1.2-0.6,2.8-0.9,4.5-0.9c1.4,0,2.6,0.2,3.7,0.5
		s1.9,0.7,2.6,1.1c0.7,0.4,1.2,0.8,1.5,1.2l-2.9,3.7c-0.8-0.6-1.5-1-2.4-1.4c-0.8-0.4-1.6-0.5-2.5-0.5c-0.6,0-1.1,0.1-1.6,0.4
		s-0.8,0.7-0.8,1.3c0,0.7,0.3,1.1,0.9,1.5c0.6,0.3,1.4,0.6,2.3,0.9l1,0.3c0.7,0.2,1.5,0.5,2.2,0.8c0.7,0.3,1.4,0.8,2,1.3
		c0.6,0.5,1.1,1.2,1.5,2s0.6,1.8,0.6,2.9c0,1.3-0.4,2.5-1.2,3.5c-0.8,1-1.8,1.8-3.2,2.4c-1.3,0.6-2.8,0.9-4.4,0.9
		c-2.1,0-4-0.3-5.4-0.9C249.9,49.2,248.7,48.4,247.7,47.5L247.7,47.5z"/>
	<path class="st0" d="M274.9,50.1V28.7h5.7v7.9h7.9v-7.9h5.7v21.5h-5.7v-8.4h-7.9v8.4H274.9z"/>
	<path class="st0" d="M304.1,50.1l1-21.5h5.5l5.2,9.4l5.1-9.4h5.5l1,21.5h-5.8l-0.5-12.6l-3.8,7.4h-3.1l-4.2-7.4l-0.4,12.6H304.1z"
		/>
	<path class="st0" d="M335.5,50.1l7.9-21.5h6.5l7.6,21.5h-6.1l-1.4-4.5h-7.2l-1.4,4.5H335.5L335.5,50.1z M343.9,41.5h4.9l-2.4-7.9
		L343.9,41.5L343.9,41.5z"/>
	<path class="st0" d="M366,50.1V28.7h5.2l8.2,12v-12h5.6v21.5h-4.9l-8.6-12.3v12.3H366z"/>
	<path class="st0" d="M407.7,50.1V28.7h5.7v16.5h10v5L407.7,50.1L407.7,50.1z"/>
	<path class="st0" d="M431,50.1l7.9-21.5h6.5l7.6,21.5h-6.2l-1.4-4.5h-7.2l-1.4,4.5H431L431,50.1z M439.5,41.5h4.9l-2.4-7.9
		L439.5,41.5L439.5,41.5z"/>
	<path class="st0" d="M462.6,50.1l-5.2-21.5h6l2.8,14.4l3.4-13.9h5.2l3.4,13.9l2.7-14.4h5.8l-5.3,21.5h-6l-3.4-13.6l-3.4,13.6H462.6
		L462.6,50.1z"/>
	<path class="st0" d="M507.7,50.1V28.7h15v5h-9.3v4.2h7.2v4.7h-7.2v7.6L507.7,50.1L507.7,50.1z"/>
	<path class="st0" d="M531.7,50.1V28.7h5.7v21.5H531.7z"/>
	<path class="st0" d="M547.7,50.1V28.7h8.9c2.3,0,4.2,0.6,5.5,1.8c1.4,1.2,2.1,3,2.1,5.3c0,1.4-0.3,2.6-0.9,3.7
		c-0.6,1-1.5,1.9-2.5,2.5l4.6,8.2h-6.1l-3.6-7.3h-2.4v7.3L547.7,50.1L547.7,50.1z M553.3,38.4h2.8c0.8,0,1.4-0.2,1.8-0.7
		c0.5-0.5,0.7-1.1,0.7-1.9c0-0.8-0.2-1.5-0.7-1.9s-1.1-0.7-1.9-0.7h-2.7L553.3,38.4L553.3,38.4z"/>
	<path class="st0" d="M574,50.1l1-21.5h5.5l5.2,9.4l5.1-9.4h5.5l1,21.5h-5.8L591,37.5l-3.8,7.4h-3.1l-4.2-7.4l-0.4,12.6H574
		L574,50.1z"/>
</g>
<g>
	<path class="st1" d="M9.6,49.9c0.6,2,1.4,3.8,2.4,5.6c2.6,4.6,6,8.1,10.6,10.7c4.5,2.6,9.9,3.9,15.9,3.9c9.8,0,17.6-3.2,23.9-9.7
		l-6.1-5.8c-1.7,1.7-3.5,3.1-5.3,4.1c-3,1.7-6.8,2.6-11.3,2.6c-4.2,0-7.9-1-11.2-2.9c-3.3-2-5.8-4.7-7.5-8.1
		c-1.7-3.3-2.5-7.1-2.5-11.2s0.8-7.7,2.5-11c1.7-3.4,4.2-6.1,7.4-8.1c3.2-2,7.1-3,11.5-3c4,0,7.6,1,10.8,2.8c1.7,1,3.3,2.2,4.8,3.7
		l6.2-6.2c-2.5-2.8-5.3-4.8-8.6-6c-4.4-1.7-9.3-2.6-14.4-2.6c-6,0-11.4,1.3-15.9,4c-4.6,2.7-8,6.3-10.6,10.9c-0.9,1.6-1.6,3.3-2.2,5
		"/>
	<path class="st2" d="M55.6,43.3L53,46.6c-2,2.5-4,4.3-5.9,5.4c-1.8,1-4.2,1.5-7.4,1.5c-2.8,0-5.1-0.6-7.2-1.8c-2-1.2-3.5-2.8-4.6-5
		c-1.1-2.3-1.7-4.8-1.7-7.7s0.5-5.3,1.7-7.5c1.1-2.1,2.6-3.7,4.5-5c2-1.2,4.4-1.8,7.4-1.8c2.6,0,4.8,0.6,6.8,1.7
		c2.1,1.2,3.9,2.9,5.4,5l2.7,3.7L71.8,18l-1.9-2.7C66.1,10,61.3,6.2,55.7,4c-5.3-2.1-11.1-3.1-17.2-3.1c-7.4,0-14.1,1.7-19.8,5.1
		c-5.7,3.4-10.2,8-13.5,13.9c-1.5,2.7-2.7,5.7-3.5,8.8h8.1c0.6-1.8,1.3-3.4,2.2-5c2.6-4.6,6-8.2,10.6-10.9c4.5-2.6,9.8-4,15.9-4
		c5.1,0,10,0.9,14.4,2.6c3.3,1.3,6.1,3.3,8.6,6l-6.2,6.2c-1.5-1.4-3.1-2.6-4.8-3.7C47.4,18,43.7,17,39.8,17c-4.4,0-8.3,1-11.5,3
		c-3.2,2-5.7,4.7-7.4,8.1c-1.7,3.3-2.5,7-2.5,11s0.9,7.9,2.5,11.2c1.7,3.5,4.3,6.2,7.5,8.1c3.2,1.9,7,2.9,11.2,2.9
		c4.6,0,8.4-0.9,11.3-2.6c1.8-1,3.5-2.4,5.3-4.1l6.1,5.8c-6.3,6.5-14.1,9.7-23.9,9.7c-6,0-11.3-1.3-15.9-3.9
		C18,63.6,14.6,60.1,12,55.5c-1-1.7-1.8-3.6-2.4-5.6H1.5c0.8,3.4,2,6.5,3.7,9.4C8.4,65.1,13,69.7,18.7,73c5.7,3.3,12.4,5,19.8,5
		c13.4,0,24.2-5.2,32.4-15.4l2.2-2.8L55.6,43.3L55.6,43.3z"/>
</g>
</svg>
