<svg xmlns="http://www.w3.org/2000/svg" width="433" height="52.55" viewBox="0 0 433 52.55">
  <g id="Group_14032" data-name="Group 14032" transform="translate(-24 -14.725)">
    <path id="Path_1" data-name="Path 1" d="M37.261-3.837l8.06,7.586Q37.735,13.3,25.2,13.3a24.144,24.144,0,0,1-12.226-3.048,21.719,21.719,0,0,1-8.3-8.365A24.579,24.579,0,0,1,1.7-10.34,24.962,24.962,0,0,1,4.68-22.633a22.141,22.141,0,0,1,8.264-8.5A23.682,23.682,0,0,1,25.2-34.25a29.707,29.707,0,0,1,10.871,1.964,18.618,18.618,0,0,1,8.5,6.841l-7.925,7.993a15.187,15.187,0,0,0-4.538-4.132,11.642,11.642,0,0,0-6.028-1.558,12.036,12.036,0,0,0-6.469,1.66,11.018,11.018,0,0,0-4.1,4.471A13.828,13.828,0,0,0,14.1-10.678,14.126,14.126,0,0,0,15.552-4.21a10.85,10.85,0,0,0,4.166,4.5,12.006,12.006,0,0,0,6.3,1.626A12.7,12.7,0,0,0,32.452.5,18.24,18.24,0,0,0,37.261-3.837Z" transform="translate(36 51.475)" fill="none" stroke="#e9c59e" stroke-width="5"/>
    <text id="THE_CASHMAN_LAW_FIRM" data-name="THE CASHMAN LAW FIRM" transform="translate(100 28)" fill="#2a333d" font-size="22" font-family="Effra-Heavy, Effra" font-weight="800" letter-spacing="0.2em"><tspan x="0" y="21">THE CASHMAN LAW FIRM</tspan></text>
    <rect id="Rectangle_5105" data-name="Rectangle 5105" width="20" height="14" transform="translate(24 35)" fill="#fff"/>
  </g>
</svg>
