<svg xmlns="http://www.w3.org/2000/svg" width="16.848" height="14.675" viewBox="0 0 16.848 14.675">
  <path id="Union_3" data-name="Union 3" d="M15615.062,8435.071a1.006,1.006,0,0,1,0-1.416l4.446-4.446h-12.43a1,1,0,0,1,0-2h12.527l-4.563-4.831a1,1,0,0,1,1.454-1.376l6.113,6.475.023.022a.988.988,0,0,1,.144.185.059.059,0,0,1,.007.01l.007.013a.992.992,0,0,1-.044,1.073.042.042,0,0,0,0,.007l-.024.032-.006.008-.025.031-.007.007c-.009.011-.019.021-.028.031l0,0-.034.034h0l-6.137,6.137a1,1,0,0,1-1.415,0Z" transform="translate(-15606.079 -8420.69)" fill="#ce996e"/>
</svg>
