<svg xmlns="http://www.w3.org/2000/svg" width="22.978" height="22.006" viewBox="0 0 22.978 22.006">
  <path id="LinkedIn_3_" d="M22.978,13.433v8.484H18.029V13.963c0-2.033-.707-3.358-2.475-3.358a2.754,2.754,0,0,0-2.563,1.768,5.216,5.216,0,0,0-.177,1.237v8.307H7.954s.088-13.433,0-14.847H12.9V9.28h0V9.191a4.957,4.957,0,0,1,4.419-2.475C20.592,6.8,22.978,8.926,22.978,13.433ZM2.828,0A2.584,2.584,0,0,0,0,2.563,2.557,2.557,0,0,0,2.74,5.126h0A2.635,2.635,0,0,0,5.568,2.563,2.609,2.609,0,0,0,2.828,0ZM.265,22.006H5.214V7.158H.265Z" fill="#fff"/>
</svg>
