<svg xmlns="http://www.w3.org/2000/svg" xmlns:xlink="http://www.w3.org/1999/xlink" width="92.461" height="92.454" viewBox="0 0 92.461 92.454">
  <defs>
    <linearGradient id="linear-gradient" x1="0.5" x2="0.5" y2="1" gradientUnits="objectBoundingBox">
      <stop offset="0" stop-color="#f0c498"/>
      <stop offset="1" stop-color="#ce996e"/>
    </linearGradient>
    <clipPath id="clip-path">
      <rect id="Rectangle_5112" data-name="Rectangle 5112" width="92.461" height="92.454" transform="translate(0 0)" fill="url(#linear-gradient)"/>
    </clipPath>
  </defs>
  <g id="Group_13807" data-name="Group 13807" transform="translate(0 -0.001)">
    <g id="Group_13806" data-name="Group 13806" transform="translate(0 0.001)" clip-path="url(#clip-path)">
      <path id="Path_4315" data-name="Path 4315" d="M34.347,30.572,25.125,25.9l4.668,9.217a1.266,1.266,0,1,1-2.258,1.144L21.121,23.6a1.266,1.266,0,0,1,1.7-1.7L35.49,28.314a1.266,1.266,0,0,1-1.143,2.259M63.22,36.827a1.265,1.265,0,0,0,1.7-.558L71.334,23.6a1.266,1.266,0,0,0-1.7-1.7L56.969,28.314a1.266,1.266,0,1,0,1.144,2.258L67.331,25.9l-4.669,9.221a1.266,1.266,0,0,0,.558,1.7M29.236,55.639a1.266,1.266,0,0,0-1.7.557L21.121,68.86a1.266,1.266,0,0,0,1.7,1.7L35.49,64.148a1.266,1.266,0,0,0-1.143-2.259l-9.222,4.668,4.668-9.217a1.266,1.266,0,0,0-.557-1.7m27.176,6.808a1.266,1.266,0,0,0,.557,1.7l12.664,6.413a1.266,1.266,0,0,0,1.7-1.7L64.921,56.193a1.266,1.266,0,1,0-2.259,1.144l4.669,9.221-9.218-4.668a1.266,1.266,0,0,0-1.7.557M92.181,47.018l-.028.033c-.016.018-.032.036-.049.054l-.03.03c-.018.017-.036.033-.055.05l-.031.026c-.02.016-.041.032-.063.047l-.03.021c-.027.018-.055.035-.084.051l-.031.016c-.028.014-.055.028-.084.041l-.05.02-.057.021-.056.016-.034.01L56.208,56.205,47.456,91.494c0,.012-.007.023-.01.035s-.01.037-.016.056-.014.039-.021.058-.012.033-.019.049-.027.058-.042.086l-.014.027c-.016.029-.033.058-.052.085l-.021.029c-.015.021-.031.043-.047.063l-.026.031c-.016.019-.033.037-.05.055l-.03.03-.054.049-.033.028c-.019.016-.04.03-.06.045l-.032.023c-.031.02-.062.039-.094.057l-.034.017-.067.033-.047.019-.06.022-.05.015-.064.016-.049.01-.074.011-.042.005c-.039,0-.079.006-.119.006h0c-.04,0-.08,0-.119-.006l-.042-.005-.074-.011-.049-.01-.064-.016-.05-.015-.06-.022-.047-.019c-.023-.01-.045-.021-.067-.032L45.62,92.3c-.032-.018-.063-.037-.094-.057l-.033-.023c-.02-.014-.04-.029-.06-.045l-.033-.028-.053-.048-.031-.031c-.017-.018-.033-.036-.049-.054l-.027-.032c-.016-.02-.031-.041-.046-.062l-.022-.031c-.018-.026-.034-.054-.05-.082l-.018-.034c-.014-.027-.028-.054-.04-.083s-.013-.034-.02-.051-.014-.037-.02-.056-.011-.038-.017-.057S45,91.505,45,91.494L36.252,56.205.961,47.453l-.034-.01-.056-.016-.057-.021-.05-.02c-.029-.012-.057-.026-.084-.041L.649,47.33C.62,47.314.592,47.3.565,47.279l-.03-.021c-.021-.015-.042-.031-.063-.047l-.031-.026c-.019-.016-.037-.032-.055-.05l-.03-.03c-.017-.017-.033-.035-.049-.054L.28,47.018c-.016-.019-.03-.04-.045-.06l-.023-.032c-.02-.031-.04-.062-.057-.094-.006-.011-.011-.023-.017-.034s-.023-.045-.033-.068S.093,46.7.087,46.683s-.015-.04-.022-.061-.01-.033-.015-.05-.012-.043-.016-.064-.007-.032-.01-.048-.008-.049-.011-.074,0-.028-.005-.042C0,46.305,0,46.266,0,46.226H0c0-.04,0-.08.006-.119,0-.014,0-.028.005-.042s.007-.05.011-.074.007-.033.01-.049.01-.043.016-.064.01-.033.015-.05.014-.04.022-.06.012-.032.019-.047.021-.045.032-.067.011-.024.017-.035c.018-.032.037-.063.057-.094l.023-.033c.014-.02.029-.04.044-.06L.308,45.4c.016-.018.032-.036.048-.053l.031-.031.054-.049.032-.027c.02-.016.041-.031.062-.046l.03-.022c.027-.018.055-.035.083-.05l.03-.016c.028-.015.056-.028.085-.041l.05-.019.057-.021.056-.016L.961,45,36.252,36.25,45,.962c0-.011.007-.022.01-.034s.011-.038.017-.057.013-.037.02-.056.013-.035.02-.051.026-.056.04-.084l.017-.032c.016-.028.032-.056.05-.083l.021-.03c.015-.021.03-.042.047-.063l.026-.031c.016-.019.033-.037.05-.055l.03-.03L45.4.309l.032-.028c.02-.016.04-.031.061-.045l.031-.023c.031-.02.062-.04.094-.057l.034-.017c.023-.011.045-.023.068-.033l.046-.018L45.83.066l.049-.015.064-.017.048-.01.075-.011.041-.005c.039,0,.079-.006.119-.006h0c.04,0,.079,0,.119.006l.042.005.074.011.049.011.063.016.05.015.06.022.048.019c.022.01.044.021.065.031l.037.018c.032.018.063.037.093.057l.034.024c.02.014.039.028.058.044l.034.029.052.048.031.031c.017.017.033.035.049.054l.027.032c.016.02.031.041.046.062l.022.031c.018.027.034.054.05.083l.018.033c.014.027.028.054.04.083s.013.034.02.05.014.038.021.057.011.037.016.056.007.023.01.035L56.208,36.25,91.5,45l.035.01.056.016.057.021.05.019c.029.013.058.026.085.041l.03.016c.028.016.056.032.083.05l.03.022c.021.015.042.03.062.046l.032.027c.019.016.037.032.054.049l.031.031c.017.017.033.035.048.053l.028.033c.016.019.03.039.045.06l.023.033c.02.03.039.062.057.094.006.011.012.024.017.035s.022.044.032.067.013.031.019.047.015.04.022.06.01.033.015.05.011.042.016.064.007.032.01.049.008.049.011.074,0,.028.005.042c0,.039.006.079.006.119h0c0,.04,0,.079-.006.119,0,.014,0,.028-.005.042s-.007.05-.011.074-.007.032-.01.048-.01.043-.017.064-.01.033-.015.05-.014.041-.022.061-.012.031-.019.047-.021.046-.033.068-.011.023-.017.034c-.018.032-.037.064-.057.094l-.023.032c-.015.02-.029.041-.045.06M47.493,43.175l6.163-6.162a1.292,1.292,0,0,1,.11-.1L47.493,11.628ZM44.962,11.635,38.7,36.916a1.284,1.284,0,0,1,.11.1l6.156,6.156ZM11.635,44.959H43.171L37.015,38.8a1.271,1.271,0,0,1-.1-.11Zm-.007,2.532,25.29,6.272a1.293,1.293,0,0,1,.1-.11l6.162-6.162ZM38.7,55.54l6.266,25.281V49.287l-6.156,6.156a1.283,1.283,0,0,1-.11.1m8.8,25.288L53.765,55.54a1.291,1.291,0,0,1-.11-.1l-6.163-6.162ZM80.832,47.491H49.283l6.162,6.162a1.28,1.28,0,0,1,.1.11Zm-.007-2.532L55.543,38.694a1.284,1.284,0,0,1-.1.11l-6.156,6.156Zm-75.9-5.617a1.264,1.264,0,0,0,1.486-1A40.613,40.613,0,0,1,38.343,6.422a1.266,1.266,0,0,0-.488-2.484A43.144,43.144,0,0,0,3.931,37.855a1.266,1.266,0,0,0,1,1.486M54.112,6.422A40.613,40.613,0,0,1,86.04,38.341a1.266,1.266,0,1,0,2.484-.489A43.145,43.145,0,0,0,54.6,3.938a1.266,1.266,0,0,0-.488,2.484M38.346,86.041A40.615,40.615,0,0,1,6.42,54.15a1.266,1.266,0,1,0-2.492.446A43.146,43.146,0,0,0,37.858,88.525a1.266,1.266,0,0,0,.488-2.484M87.529,53.11a1.266,1.266,0,0,0-1.486,1A40.615,40.615,0,0,1,54.108,86.041a1.266,1.266,0,1,0,.488,2.484A43.146,43.146,0,0,0,88.527,54.6a1.266,1.266,0,0,0-1-1.486" transform="translate(0 -0.001)" fill="url(#linear-gradient)"/>
    </g>
  </g>
</svg>
