<svg id="Group_13799" data-name="Group 13799" xmlns="http://www.w3.org/2000/svg" xmlns:xlink="http://www.w3.org/1999/xlink" width="90.6" height="92.454" viewBox="0 0 90.6 92.454">
  <defs>
    <linearGradient id="linear-gradient" x1="0.5" x2="0.5" y2="1" gradientUnits="objectBoundingBox">
      <stop offset="0" stop-color="#f0c498"/>
      <stop offset="1" stop-color="#ce996e"/>
    </linearGradient>
    <clipPath id="clip-path">
      <rect id="Rectangle_5108" data-name="Rectangle 5108" width="90.6" height="92.454" transform="translate(0 0)" fill="url(#linear-gradient)"/>
    </clipPath>
  </defs>
  <g id="Group_13798" data-name="Group 13798" transform="translate(0 0)" clip-path="url(#clip-path)">
    <path id="Path_4311" data-name="Path 4311" d="M34.887,21.63v8.983h-.878a1.455,1.455,0,1,0,0,2.91H55.785a1.455,1.455,0,0,0,0-2.91h-.878V21.63a1.454,1.454,0,0,0-.608-1.183l-7.946-5.684V1.459a1.455,1.455,0,1,0-2.91,0v13.3L35.5,20.447a1.455,1.455,0,0,0-.608,1.183M52,30.613H46.442V24.428H52Zm-7.11-13.305h.022l5.885,4.209H39ZM37.8,24.428h5.735v6.186H37.8ZM53.915,13.767l2.111-6.881a1.455,1.455,0,0,1,2.782.853L56.7,14.62a1.455,1.455,0,1,1-2.782-.853M71.389,24.459l5.559-4.571A1.455,1.455,0,1,1,78.8,22.135l-5.559,4.571a1.455,1.455,0,1,1-1.848-2.248M61.27,20.715,69.206,8.706a1.455,1.455,0,1,1,2.428,1.6L63.7,22.319a1.455,1.455,0,1,1-2.428-1.6m12.4,13.57,13.242-5.643a1.455,1.455,0,1,1,1.141,2.677L74.812,36.962a1.455,1.455,0,1,1-1.141-2.677M31.166,7.739a1.455,1.455,0,1,1,2.782-.853l2.111,6.881a1.455,1.455,0,1,1-2.782.853ZM10.978,20.087a1.455,1.455,0,0,1,2.048-.2l5.559,4.571a1.455,1.455,0,1,1-1.848,2.248l-5.559-4.571a1.455,1.455,0,0,1-.2-2.048m7.363-9.777a1.455,1.455,0,0,1,2.428-1.6L28.7,20.715a1.455,1.455,0,1,1-2.428,1.6ZM1.152,29.41a1.455,1.455,0,0,1,1.909-.768L16.3,34.285a1.455,1.455,0,1,1-1.141,2.677L1.92,31.319a1.455,1.455,0,0,1-.768-1.909M90.6,55.534q-.358,2.225-.923,4.375-1.028.7-2.108,1.3a30.87,30.87,0,0,1-5.876,2.511A42.215,42.215,0,0,1,69,65.466h-.093a81.261,81.261,0,0,1-11.147-.879l.924,6.81c10.475,1.4,20.408,1.155,28.324-4.026a46.067,46.067,0,0,1-2.459,4.653,31.164,31.164,0,0,1-3.457,1.3,41.525,41.525,0,0,1-12.481,1.717h-.091a76.422,76.422,0,0,1-9.431-.659l.926,6.826a53.122,53.122,0,0,0,17.6-.336,46.573,46.573,0,0,1-4.024,3.581h0c-1.584.156-3.238.233-4.977.233h-.091a73.413,73.413,0,0,1-8.1-.5l.924,6.817.053.386-.026.01-.251.095-.151.056-.2.074-.135.049-.26.093-.049.017-.288.1-.321.11-.114.039-.254.084-.124.04L59,92.234l-.077.025-.292.092-.036.011-7.407-54.62H38.614l-7.1,54.716q-1.426-.43-2.812-.948l.447-3.446A83.438,83.438,0,0,0,19.749,87,46.368,46.368,0,0,1,15.7,84.054c1.176-.039,2.4-.033,3.685.018a84.071,84.071,0,0,1,10.14,1.1l.85-6.551a85.761,85.761,0,0,0-11.106-1.29,36.744,36.744,0,0,0-9.676.739q-1.028-1.21-1.972-2.49.714-.2,1.46-.369a39.5,39.5,0,0,1,10.3-.787,88.119,88.119,0,0,1,11.365,1.309L31.6,69.2a90.215,90.215,0,0,0-12.329-1.506c-6.22-.246-11.066.609-14.985,2.674q-.7-1.273-1.318-2.594a24.862,24.862,0,0,1,6.114-2.2,39.5,39.5,0,0,1,10.3-.787,92.3,92.3,0,0,1,12.588,1.524l.846-6.519a97.4,97.4,0,0,0-14.011-1.8c-7.729-.306-13.374,1.059-17.764,4.3l-.41-.557Q.288,60.6,0,59.454a24.155,24.155,0,0,1,8.448-3.576,40.171,40.171,0,0,1,10.475-.8A99.406,99.406,0,0,1,33.194,56.9l2.485-19.155h-1.67a1.455,1.455,0,1,1,0-2.91H55.785a1.455,1.455,0,0,1,0,2.91H54.124l3.234,23.846a80.061,80.061,0,0,0,11.616.963c8.128,0,15.593-1.766,21.626-7.016" transform="translate(0 -0.004)" fill="url(#linear-gradient)"/>
  </g>
</svg>
