<svg xmlns="http://www.w3.org/2000/svg" xmlns:xlink="http://www.w3.org/1999/xlink" width="65.828" height="92.454" viewBox="0 0 65.828 92.454">
  <defs>
    <linearGradient id="linear-gradient" x1="0.5" x2="0.5" y2="1" gradientUnits="objectBoundingBox">
      <stop offset="0" stop-color="#f0c498"/>
      <stop offset="1" stop-color="#ce996e"/>
    </linearGradient>
    <clipPath id="clip-path">
      <rect id="Rectangle_5109" data-name="Rectangle 5109" width="65.828" height="92.454" transform="translate(0 0)" fill="url(#linear-gradient)"/>
    </clipPath>
  </defs>
  <g id="Group_13800" data-name="Group 13800" clip-path="url(#clip-path)">
    <path id="Path_4312" data-name="Path 4312" d="M37.459,9.683A4.519,4.519,0,1,0,32.94,14.2a4.524,4.524,0,0,0,4.519-4.519M32.94,11.57a1.887,1.887,0,1,1,1.887-1.887A1.89,1.89,0,0,1,32.94,11.57M61.5,73.7a20.169,20.169,0,0,1-13.928,8.823A18.481,18.481,0,0,0,34.217,91.45a1.316,1.316,0,0,1-1.277,1.007l-.038,0h-.014a1.318,1.318,0,0,1-1.276-1,18.478,18.478,0,0,0-13.351-8.929A20.169,20.169,0,0,1,4.333,73.7C.123,67.539-1.069,59.4.977,50.788a1.314,1.314,0,0,1,2.078-.741A39.422,39.422,0,0,1,12.98,61.7a1.316,1.316,0,0,1-.895,1.888l-3.467.743c1.381,2.244,4.945,6.392,12.4,6.392.588,0,14.358-.2,14.358-16.276V46.792c0-.036,0-.07,0-.1v-8.04a4.191,4.191,0,0,1,4.186-4.186H49.917a.883.883,0,0,0,.882-.882v-.148a.883.883,0,0,0-.882-.882H39.564a4.192,4.192,0,0,1-4.186-4.186l0-3.228c0-.014,0-.029,0-.044a8.128,8.128,0,0,0-.394-2.469,5.661,5.661,0,0,0-.449-1.019,17.707,17.707,0,0,0,2.495-.9,8.615,8.615,0,0,1,.478,1.176A10.712,10.712,0,0,1,38,25.15l.006,3.212a1.557,1.557,0,0,0,1.554,1.554H49.917a3.518,3.518,0,0,1,3.514,3.514v.148a3.518,3.518,0,0,1-3.514,3.514H39.564a1.556,1.556,0,0,0-1.554,1.554V49.209c0,.035,0,.07-.006.1v5.129c0,5.93-1.69,10.62-5.022,13.941a18.337,18.337,0,0,1-11.97,4.966c-11.865,0-15.43-9.1-15.576-9.485a1.316,1.316,0,0,1,.955-1.751l3.4-.728A37.38,37.38,0,0,0,3.1,53.53c-1.22,7.078-.036,13.647,3.406,18.685a17.569,17.569,0,0,0,12.121,7.7,21.073,21.073,0,0,1,14.289,8.705A21.076,21.076,0,0,1,47.2,79.918a17.568,17.568,0,0,0,12.121-7.7c3.442-5.037,4.627-11.606,3.407-18.683a37.46,37.46,0,0,0-6.688,7.855l3.4.728a1.317,1.317,0,0,1,.955,1.751c-.146.387-3.711,9.485-15.582,9.485a18.721,18.721,0,0,1-10.45-3.642,17.477,17.477,0,0,0,1.715-2,16.143,16.143,0,0,0,8.731,3.015h0c7.4,0,10.993-4.156,12.391-6.394l-3.455-.741a1.316,1.316,0,0,1-.9-1.888,39.44,39.44,0,0,1,9.924-11.649,1.315,1.315,0,0,1,2.08.741C66.9,59.4,65.7,67.539,61.5,73.7M12.4,33.579v-.148a3.518,3.518,0,0,1,3.514-3.514H26.265a1.557,1.557,0,0,0,1.555-1.554l0-3.212a10.744,10.744,0,0,1,.5-3.275,6.357,6.357,0,0,1,4.537-4.529c4.756-1.2,6.322-3.969,6.835-5.8a1.051,1.051,0,0,1,.021-.107,7.025,7.025,0,1,0-13.609,0,1.492,1.492,0,0,1,.029.154,7.675,7.675,0,0,0,4.142,4.769,7.9,7.9,0,0,0-2.122,1.829,10.075,10.075,0,0,1-4.52-5.88,1.313,1.313,0,0,1-.078-.22,9.794,9.794,0,0,1-.24-1.344,7.933,7.933,0,0,1-.061-1.061h0c0-.015,0-.027,0-.037A9.693,9.693,0,0,1,31.68.088,1.412,1.412,0,0,1,31.837.06,9.712,9.712,0,0,1,32.89,0h.05A9.689,9.689,0,0,1,33.992.06a1.4,1.4,0,0,1,.158.028,9.693,9.693,0,0,1,8.42,9.548,7.651,7.651,0,0,1-.062,1.122,9.671,9.671,0,0,1-.239,1.33,1.279,1.279,0,0,1-.075.215c-.72,2.521-2.787,6.1-8.685,7.595-3.164.8-3.054,5.15-3.053,5.194,0,.015,0,.029,0,.044l-.006,3.228a4.191,4.191,0,0,1-4.186,4.186H15.913a.884.884,0,0,0-.883.882v.148a.884.884,0,0,0,.883.882H26.265a4.191,4.191,0,0,1,4.186,4.186v8.04c0,.035.006.069.006.1v7.652a20.034,20.034,0,0,0,1.4,7.8,11.354,11.354,0,0,1-1.708,2.524,21.389,21.389,0,0,1-2.324-10.321V49.314c0-.034,0-.069,0-.1V38.647a1.556,1.556,0,0,0-1.555-1.554H15.913A3.518,3.518,0,0,1,12.4,33.579" transform="translate(0 -0.003)" fill="url(#linear-gradient)"/>
  </g>
</svg>
